<svg width="364" height="251" viewBox="0 0 364 251" fill="none" xmlns="http://www.w3.org/2000/svg">
<path d="M253.281 24.8237C235.951 17.1875 217.375 11.5433 197.95 8.33392C197.777 8.30147 197.598 8.32238 197.437 8.39376C197.277 8.46514 197.143 8.58346 197.055 8.73233C194.676 12.816 192.026 18.1392 190.168 22.3447C169.566 19.3371 148.621 19.3371 128.018 22.3447C125.949 17.6839 123.616 13.1395 121.03 8.73233C120.942 8.58163 120.81 8.46063 120.65 8.38549C120.49 8.31035 120.31 8.28464 120.135 8.31178C100.721 11.5212 82.1451 17.1653 64.8039 24.8126C64.6547 24.8737 64.5282 24.978 64.4414 25.1114C29.1926 75.7427 15.2912 116.736 20.0371 165.497C20.0503 165.616 20.0883 165.732 20.1487 165.836C20.209 165.941 24.5302 174.42 24.6279 174.493C45.2017 189.128 68.1491 200.277 92.5091 207.472C92.6789 207.524 92.8605 207.523 93.0303 207.472C93.2 207.421 93.35 207.321 93.4605 207.185C98.7025 200.335 103.348 193.068 107.347 185.46C107.403 185.356 107.435 185.242 107.441 185.125C107.447 185.008 107.428 184.89 107.384 184.781C107.34 184.672 107.272 184.574 107.186 184.492C107.099 184.411 106.996 184.348 106.883 184.309C99.5657 181.617 92.4761 178.368 85.6791 174.593C85.5569 174.524 85.454 174.428 85.3795 174.311C85.3051 174.195 85.2614 174.062 85.2524 173.925C85.2434 173.788 85.2694 173.65 85.3281 173.526C85.3867 173.401 85.4762 173.292 85.5884 173.209C87.0156 172.18 88.4428 171.106 89.802 170.033C89.9244 169.936 90.0717 169.875 90.2277 169.855C90.3837 169.836 90.5422 169.859 90.6855 169.922C135.166 189.444 183.338 189.444 227.297 169.922C227.441 169.855 227.601 169.829 227.759 169.847C227.918 169.864 228.067 169.925 228.192 170.022C229.551 171.106 230.967 172.18 232.406 173.209C232.519 173.29 232.61 173.397 232.67 173.521C232.731 173.645 232.759 173.782 232.752 173.919C232.746 174.056 232.704 174.189 232.632 174.307C232.559 174.424 232.458 174.522 232.338 174.593C225.564 178.4 218.519 181.62 211.123 184.298C211.009 184.339 210.906 184.402 210.819 184.485C210.733 184.567 210.665 184.667 210.621 184.777C210.577 184.887 210.558 185.004 210.564 185.122C210.571 185.24 210.603 185.355 210.658 185.46C214.736 193.063 219.403 200.301 224.534 207.174C224.64 207.315 224.789 207.42 224.959 207.476C225.129 207.531 225.313 207.534 225.485 207.484C249.887 200.308 272.871 189.154 293.468 174.493C293.568 174.424 293.653 174.335 293.715 174.232C293.778 174.129 293.817 174.014 293.83 173.895C299.494 117.52 284.339 68.5381 253.632 25.1335C253.557 24.9925 253.432 24.8825 253.281 24.8237ZM113.996 144.192C100.608 144.192 89.5641 132.361 89.5641 117.852C89.5641 103.333 100.393 91.513 113.996 91.513C127.701 91.513 138.643 103.432 138.428 117.852C138.428 132.372 127.599 144.192 113.996 144.192ZM204.327 144.192C190.927 144.192 179.895 132.361 179.895 117.852C179.895 103.333 190.712 91.513 204.327 91.513C218.032 91.513 228.974 103.432 228.758 117.852C228.758 132.372 218.043 144.192 204.327 144.192Z" fill="#212749"/>
<path opacity="0.6" d="M451 270.5C451 395.04 350.04 496 225.5 496C100.96 496 7.09099e-05 395.04 7.09099e-05 270.5C7.09099e-05 145.96 100.96 45 225.5 45C350.04 45 451 145.96 451 270.5Z" fill="#212128"/>
<g filter="url(#filter0_i_11_1084)">
<path d="M249.131 16.5224C231.801 8.8862 213.225 3.24206 193.8 0.0326493C193.627 0.00020011 193.448 0.0211116 193.287 0.0924919C193.127 0.163872 192.993 0.28219 192.905 0.431059C190.526 4.51476 187.876 9.83796 186.018 14.0434C165.416 11.0358 144.471 11.0358 123.868 14.0434C121.799 9.38267 119.466 4.83818 116.88 0.431059C116.792 0.280357 116.659 0.159363 116.5 0.0842227C116.34 0.00908224 116.16 -0.0166316 115.985 0.0105144C96.5709 3.21993 77.9951 8.86407 60.6539 16.5113C60.5047 16.5725 60.3782 16.6767 60.2914 16.8101C25.0426 67.4414 15.3809 116.822 20.1268 165.583C20.14 165.702 20.1779 165.818 20.2383 165.923C20.2987 166.027 20.3802 166.119 20.4779 166.192C41.0517 180.827 63.9991 191.976 88.3591 199.171C88.5289 199.222 88.7105 199.222 88.8802 199.171C89.05 199.119 89.1999 199.019 89.3105 198.883C94.5525 192.034 99.1976 184.767 103.197 177.159C103.253 177.055 103.285 176.941 103.291 176.823C103.297 176.706 103.278 176.589 103.234 176.48C103.19 176.371 103.122 176.272 103.036 176.191C102.949 176.109 102.846 176.047 102.733 176.008C95.4157 173.316 88.326 170.067 81.529 166.291C81.4069 166.223 81.304 166.126 81.2295 166.01C81.1551 165.893 81.1114 165.761 81.1024 165.623C81.0934 165.486 81.1194 165.349 81.1781 165.224C81.2367 165.099 81.3262 164.991 81.4384 164.908C82.8656 163.879 84.2928 162.805 85.652 161.732C85.7743 161.635 85.9217 161.574 86.0777 161.554C86.2337 161.535 86.3921 161.558 86.5355 161.621C131.016 181.143 179.188 181.143 223.147 161.621C223.291 161.554 223.451 161.528 223.609 161.545C223.768 161.563 223.917 161.624 224.042 161.721C225.401 162.805 226.817 163.879 228.256 164.908C228.369 164.989 228.46 165.096 228.52 165.22C228.581 165.344 228.609 165.48 228.602 165.617C228.596 165.755 228.554 165.888 228.482 166.005C228.409 166.123 228.308 166.221 228.188 166.291C221.414 170.098 214.369 173.319 206.973 175.997C206.859 176.037 206.756 176.101 206.669 176.183C206.583 176.266 206.515 176.365 206.471 176.475C206.427 176.585 206.408 176.703 206.414 176.821C206.421 176.939 206.453 177.054 206.508 177.159C210.586 184.762 215.253 192 220.384 198.872C220.49 199.013 220.639 199.119 220.809 199.174C220.979 199.23 221.163 199.233 221.335 199.182C245.737 192.007 268.722 180.853 289.318 166.192C289.419 166.123 289.503 166.034 289.565 165.931C289.628 165.828 289.667 165.713 289.681 165.594C295.344 109.219 280.189 60.2368 249.482 16.8323C249.407 16.6912 249.282 16.5813 249.131 16.5224ZM109.846 135.89C96.4577 135.89 85.4141 124.06 85.4141 109.551C85.4141 95.0313 96.2425 83.2118 109.846 83.2118C123.551 83.2118 134.493 95.1309 134.278 109.551C134.278 124.071 123.449 135.89 109.846 135.89ZM200.177 135.89C186.777 135.89 175.745 124.06 175.745 109.551C175.745 95.0313 186.562 83.2118 200.177 83.2118C213.882 83.2118 224.824 95.1309 224.608 109.551C224.608 124.071 213.893 135.89 200.177 135.89Z" fill="url(#paint0_linear_11_1084)"/>
</g>
<defs>
<filter id="filter0_i_11_1084" x="19" y="0" width="271.85" height="203.218" filterUnits="userSpaceOnUse" color-interpolation-filters="sRGB">
<feFlood flood-opacity="0" result="BackgroundImageFix"/>
<feBlend mode="normal" in="SourceGraphic" in2="BackgroundImageFix" result="shape"/>
<feColorMatrix in="SourceAlpha" type="matrix" values="0 0 0 0 0 0 0 0 0 0 0 0 0 0 0 0 0 0 127 0" result="hardAlpha"/>
<feOffset dy="4"/>
<feGaussianBlur stdDeviation="2"/>
<feComposite in2="hardAlpha" operator="arithmetic" k2="-1" k3="1"/>
<feColorMatrix type="matrix" values="0 0 0 0 1 0 0 0 0 1 0 0 0 0 1 0 0 0 0.25 0"/>
<feBlend mode="normal" in2="shape" result="effect1_innerShadow_11_1084"/>
</filter>
<linearGradient id="paint0_linear_11_1084" x1="88" y1="9.33835" x2="379.045" y2="238.128" gradientUnits="userSpaceOnUse">
<stop stop-color="#114CE8"/>
<stop offset="1" stop-color="#25329F"/>
</linearGradient>
</defs>
</svg>
