<svg width="32" height="32" viewBox="0 0 32 32" fill="none" xmlns="http://www.w3.org/2000/svg">
<path d="M14.5533 23.5019C15.0063 23.5019 15.414 23.8653 15.414 24.3651C15.414 24.8194 15.0516 25.2282 14.5533 25.2282C14.1002 25.2282 13.6925 24.8648 13.6925 24.3651C13.6925 23.8653 14.1002 23.5019 14.5533 23.5019ZM27.8724 18.232C27.4194 18.232 27.0117 17.8685 27.0117 17.3688C27.0117 16.9145 27.3741 16.5056 27.8724 16.5056C28.3254 16.5056 28.7332 16.8691 28.7332 17.3688C28.7332 17.8231 28.3254 18.232 27.8724 18.232ZM27.8724 14.7339C26.4227 14.7339 25.2448 15.9151 25.2448 17.3688C25.2448 17.6414 25.2901 17.914 25.3807 18.1866L16.7278 22.8204C16.2295 22.0935 15.414 21.6847 14.5533 21.6847C13.5566 21.6847 12.6505 22.2753 12.1975 23.1384L4.40537 19.0497C3.58991 18.5954 2.95566 17.278 3.04627 16.0059C3.09157 15.3699 3.31809 14.8702 3.63521 14.6884C3.86173 14.5521 4.08824 14.5976 4.40537 14.7339L4.45067 14.7793C6.53462 15.8696 13.2848 19.4132 13.5566 19.5495C14.0096 19.7312 14.2362 19.822 15.0063 19.4586L28.9597 12.1898C29.1862 12.0989 29.4127 11.9172 29.4127 11.5992C29.4127 11.1903 29.005 11.0086 29.005 11.0086C28.1895 10.6452 26.9664 10.0546 25.7885 9.50941C23.2515 8.32822 20.3521 6.96532 19.0836 6.28387C17.9963 5.69328 17.0903 6.19301 16.9543 6.28387L16.6372 6.42016C10.8837 9.32769 3.27279 13.0984 2.81975 13.371C2.0496 13.8253 1.55127 14.7793 1.50596 15.9605C1.41536 17.8231 2.36672 19.7766 3.72582 20.4581L11.971 24.7285C12.1522 26.0005 13.2848 27 14.5533 27C16.003 27 17.1356 25.8642 17.1809 24.4105L26.2415 19.504C26.6945 19.8675 27.2835 20.0492 27.8724 20.0492C29.3221 20.0492 30.5 18.868 30.5 17.4142C30.5 15.9151 29.3221 14.7339 27.8724 14.7339Z" fill="#A3A3B5"/>
</svg>
