<svg width="18" height="18" viewBox="0 0 18 18" fill="none" xmlns="http://www.w3.org/2000/svg">
<path fill-rule="evenodd" clip-rule="evenodd" d="M9 0C4.02944 0 0 4.02944 0 9C0 13.9706 4.02944 18 9 18H13.5C14.8978 18 15.5967 18 16.1481 17.7716C16.8831 17.4672 17.4672 16.8831 17.7716 16.1481C18 15.5967 18 14.8978 18 13.5V9C18 4.02944 13.9706 0 9 0ZM11.6792 4.74766C11.1404 4.24922 10.4206 4 9.51981 4C8.87158 4 8.31595 4.12906 7.85293 4.38718C7.39832 4.6364 7.05316 4.97908 6.81744 5.41522C6.73277 5.57768 6.66504 5.74756 6.61424 5.92484C6.46545 6.44416 6.931 6.88385 7.47121 6.88385H7.73873C8.11746 6.88385 8.39764 6.57601 8.66114 6.28651C8.70354 6.23993 8.74551 6.19381 8.78739 6.14953C8.95577 5.96262 9.19149 5.86916 9.49456 5.86916C9.78079 5.86916 10.0039 5.95817 10.1638 6.13618C10.3238 6.3142 10.4038 6.55897 10.4038 6.87049C10.4038 7.31553 10.2312 7.62261 9.88602 7.79172C9.54928 7.96084 9.05679 8.04539 8.40856 8.04539C7.99326 8.04539 7.65958 8.38766 7.67014 8.80282L7.6895 9.56412C7.70314 10.1008 8.1421 10.5287 8.67891 10.5287H9.10391C9.38742 10.5287 9.6221 10.3084 9.63994 10.0254C9.65765 9.74463 9.89005 9.52991 10.1691 9.4938C10.7919 9.41318 11.3079 9.1885 11.7171 8.81976C12.239 8.34802 12.5 7.69381 12.5 6.85714C12.5 5.94927 12.2264 5.24611 11.6792 4.74766ZM7.7519 13.6529C7.99604 13.8843 8.30753 14 8.68637 14C9.05679 14 9.35986 13.8843 9.59558 13.6529C9.83972 13.4126 9.96179 13.1188 9.96179 12.7717C9.96179 12.4157 9.83972 12.1175 9.59558 11.8772C9.35986 11.6368 9.05679 11.5167 8.68637 11.5167C8.30753 11.5167 7.99604 11.6368 7.7519 11.8772C7.51618 12.1175 7.39832 12.4157 7.39832 12.7717C7.39832 13.1188 7.51618 13.4126 7.7519 13.6529Z" fill="white"/>
</svg>
