<svg width="32" height="32" viewBox="0 0 32 32" fill="none" xmlns="http://www.w3.org/2000/svg">
<path d="M15.9475 3C8.79747 3 3 8.6774 3 15.6793C3 22.6813 8.79747 28.3587 15.9475 28.3587C23.0975 28.3587 28.895 22.6813 28.895 15.6793C28.895 8.6774 23.0975 3 15.9475 3ZM23.3461 10.1802L22.1669 11.2868C22.0629 11.3633 22.0137 11.4878 22.034 11.6095V19.752C22.0137 19.8765 22.0629 20.0011 22.1669 20.0746L23.3229 21.1813V21.4275H17.5197V21.1926L18.7133 20.0577C18.8318 19.9416 18.8318 19.9077 18.8318 19.735V13.1463L15.5082 21.3992H15.0602L11.1933 13.1463V18.6793C11.1587 18.9114 11.2425 19.1463 11.4101 19.3133L12.9649 21.1558V21.402H8.54892V21.1558L10.1038 19.3133C10.1857 19.2304 10.2467 19.1299 10.2818 19.0199C10.3169 18.9098 10.3252 18.7932 10.3061 18.6793V12.2831C10.3263 12.1048 10.2569 11.9321 10.1182 11.8104L8.73678 10.1802V9.93401H13.0285L16.3405 17.052L19.2566 9.93967H23.3461V10.1802Z" fill="#A3A3B5"/>
</svg>
