<svg width="32" height="32" viewBox="0 0 32 32" fill="none" xmlns="http://www.w3.org/2000/svg">
<path d="M16 5C9.65008 5 4.5 10.0498 4.5 16.2781C4.5 21.2611 7.79475 25.4885 12.365 26.98C12.9391 27.0844 13.125 26.7347 13.125 26.4378V24.3382C9.92608 25.0205 9.26004 23.0073 9.26004 23.0073C8.73679 21.7038 7.98258 21.357 7.98258 21.357C6.93896 20.6568 8.06212 20.6718 8.06212 20.6718C9.21692 20.7508 9.8245 21.8344 9.8245 21.8344C10.8499 23.5581 12.5145 23.06 13.171 22.7714C13.2735 22.0431 13.5716 21.5449 13.9012 21.2639C11.3473 20.9773 8.66204 20.0102 8.66204 15.6897C8.66204 14.4576 9.1115 13.452 9.84654 12.6625C9.72771 12.3777 9.33383 11.2302 9.95867 9.67759C9.95867 9.67759 10.9247 9.37496 13.1221 10.8336C14.0392 10.5836 15.0225 10.4586 16 10.4539C16.9775 10.4586 17.9617 10.5836 18.8807 10.8336C21.0763 9.37496 22.0404 9.67759 22.0404 9.67759C22.6662 11.2311 22.2723 12.3787 22.1535 12.6625C22.8914 13.452 23.337 14.4586 23.337 15.6897C23.337 20.0215 20.647 20.9754 18.0863 21.2545C18.4984 21.6042 18.875 22.2902 18.875 23.3429V26.4378C18.875 26.7376 19.059 27.09 19.6426 26.9791C24.2091 25.4857 27.5 21.2592 27.5 16.2781C27.5 10.0498 22.3509 5 16 5Z" fill="#A3A3B5"/>
</svg>
