<svg width="32" height="32" viewBox="0 0 32 32" fill="none" xmlns="http://www.w3.org/2000/svg">
<path d="M24.9217 7.57746C23.2709 6.8484 21.5014 6.30953 19.651 6.00312C19.6345 6.00002 19.6174 6.00202 19.6022 6.00883C19.5869 6.01565 19.5742 6.02694 19.5657 6.04116C19.3391 6.43104 19.0867 6.93927 18.9097 7.34078C16.9472 7.05364 14.952 7.05364 12.9895 7.34078C12.7924 6.8958 12.5702 6.46192 12.3238 6.04116C12.3154 6.02677 12.3028 6.01522 12.2876 6.00804C12.2723 6.00087 12.2552 5.99841 12.2385 6.001C10.3892 6.30742 8.61972 6.84629 6.96784 7.57641C6.95363 7.58225 6.94158 7.5922 6.93331 7.60494C3.5756 12.4389 2.65525 17.1535 3.10734 21.8089C3.10859 21.8203 3.11221 21.8314 3.11796 21.8414C3.12371 21.8513 3.13147 21.8601 3.14078 21.867C5.10059 23.2643 7.28649 24.3288 9.60697 25.0157C9.62314 25.0206 9.64044 25.0206 9.65661 25.0157C9.67278 25.0108 9.68706 25.0012 9.6976 24.9883C10.1969 24.3343 10.6394 23.6405 11.0204 22.9141C11.0257 22.9042 11.0287 22.8933 11.0293 22.8821C11.0299 22.8709 11.0281 22.8597 11.0239 22.8493C11.0197 22.8389 11.0133 22.8295 11.005 22.8217C10.9968 22.8139 10.9869 22.808 10.9762 22.8043C10.2792 22.5472 9.60382 22.237 8.95635 21.8766C8.94472 21.8701 8.93492 21.8608 8.92782 21.8497C8.92073 21.8386 8.91657 21.8259 8.91571 21.8128C8.91486 21.7997 8.91734 21.7866 8.92292 21.7747C8.92851 21.7628 8.93703 21.7524 8.94772 21.7445C9.08367 21.6462 9.21962 21.5437 9.34909 21.4412C9.36075 21.432 9.37479 21.4261 9.38965 21.4243C9.4045 21.4224 9.4196 21.4246 9.43325 21.4307C13.6703 23.2945 18.2591 23.2945 22.4465 21.4307C22.4602 21.4243 22.4755 21.4218 22.4906 21.4235C22.5056 21.4251 22.5199 21.4309 22.5318 21.4402C22.6612 21.5437 22.7961 21.6462 22.9331 21.7445C22.9439 21.7522 22.9526 21.7625 22.9584 21.7743C22.9641 21.7861 22.9668 21.7991 22.9662 21.8122C22.9655 21.8253 22.9616 21.838 22.9547 21.8493C22.9478 21.8605 22.9382 21.8699 22.9267 21.8766C22.2815 22.24 21.6103 22.5475 20.9058 22.8032C20.895 22.8071 20.8851 22.8131 20.8769 22.821C20.8686 22.8289 20.8622 22.8384 20.858 22.8489C20.8538 22.8594 20.852 22.8706 20.8526 22.8819C20.8532 22.8931 20.8563 22.9041 20.8616 22.9141C21.25 23.64 21.6945 24.3311 22.1833 24.9872C22.1934 25.0007 22.2076 25.0107 22.2238 25.016C22.24 25.0213 22.2575 25.0216 22.2739 25.0168C24.5984 24.3317 26.7878 23.2668 28.7498 21.867C28.7594 21.8605 28.7674 21.852 28.7734 21.8422C28.7793 21.8323 28.7831 21.8214 28.7843 21.81C29.3238 16.4276 27.8802 11.7511 24.9551 7.60705C24.9479 7.59358 24.9361 7.58308 24.9217 7.57746ZM11.6537 18.9741C10.3784 18.9741 9.32644 17.8445 9.32644 16.4593C9.32644 15.073 10.3579 13.9446 11.6537 13.9446C12.9593 13.9446 14.0016 15.0826 13.9811 16.4593C13.9811 17.8456 12.9496 18.9741 11.6537 18.9741ZM20.2584 18.9741C18.982 18.9741 17.9311 17.8445 17.9311 16.4593C17.9311 15.073 18.9615 13.9446 20.2584 13.9446C21.564 13.9446 22.6062 15.0826 22.5857 16.4593C22.5857 17.8456 21.565 18.9741 20.2584 18.9741Z" fill="#A3A3B5"/>
</svg>
