<svg width="26" height="20" viewBox="0 0 26 20" fill="none" xmlns="http://www.w3.org/2000/svg">
<path d="M21.9217 1.57746C20.2709 0.848405 18.5014 0.309534 16.651 0.00311717C16.6345 1.91054e-05 16.6174 0.00201561 16.6022 0.00883061C16.5869 0.0156456 16.5742 0.0269419 16.5657 0.0411551C16.3391 0.431044 16.0867 0.939273 15.9097 1.34078C13.9472 1.05364 11.952 1.05364 9.98949 1.34078C9.7924 0.895805 9.57015 0.461922 9.32378 0.0411551C9.31542 0.026767 9.30279 0.0152151 9.28756 0.00804111C9.27233 0.000867121 9.25523 -0.00158789 9.23854 0.00100386C7.38921 0.307421 5.61972 0.846291 3.96784 1.57641C3.95363 1.58225 3.94158 1.5922 3.93331 1.60494C0.575602 6.43892 -0.344747 11.1535 0.107335 15.8089C0.108593 15.8203 0.112207 15.8314 0.117957 15.8414C0.123708 15.8513 0.131474 15.8601 0.140783 15.867C2.10059 17.2643 4.28649 18.3288 6.60697 19.0157C6.62314 19.0206 6.64044 19.0206 6.65661 19.0157C6.67278 19.0108 6.68706 19.0012 6.6976 18.9883C7.19693 18.3343 7.63942 17.6405 8.0204 16.9141C8.02569 16.9042 8.02873 16.8933 8.02933 16.8821C8.02993 16.8709 8.02807 16.8597 8.02388 16.8493C8.01968 16.8389 8.01325 16.8295 8.00502 16.8217C7.99679 16.8139 7.98695 16.808 7.97616 16.8043C7.27916 16.5472 6.60382 16.237 5.95635 15.8766C5.94472 15.8701 5.93492 15.8608 5.92782 15.8497C5.92073 15.8386 5.91657 15.8259 5.91571 15.8128C5.91486 15.7997 5.91734 15.7866 5.92292 15.7747C5.92851 15.7628 5.93703 15.7524 5.94772 15.7445C6.08367 15.6462 6.21962 15.5437 6.34909 15.4412C6.36075 15.432 6.37479 15.4261 6.38965 15.4243C6.4045 15.4224 6.4196 15.4246 6.43325 15.4307C10.6703 17.2945 15.2591 17.2945 19.4465 15.4307C19.4602 15.4243 19.4755 15.4218 19.4906 15.4235C19.5056 15.4251 19.5199 15.4309 19.5318 15.4402C19.6612 15.5437 19.7961 15.6462 19.9331 15.7445C19.9439 15.7522 19.9526 15.7625 19.9584 15.7743C19.9641 15.7861 19.9668 15.7991 19.9662 15.8122C19.9655 15.8253 19.9616 15.838 19.9547 15.8493C19.9478 15.8605 19.9382 15.8699 19.9267 15.8766C19.2815 16.24 18.6103 16.5475 17.9058 16.8032C17.895 16.8071 17.8851 16.8131 17.8769 16.821C17.8686 16.8289 17.8622 16.8384 17.858 16.8489C17.8538 16.8594 17.852 16.8706 17.8526 16.8819C17.8532 16.8931 17.8563 16.9041 17.8616 16.9141C18.25 17.64 18.6945 18.3311 19.1833 18.9872C19.1934 19.0007 19.2076 19.0107 19.2238 19.016C19.24 19.0213 19.2575 19.0216 19.2739 19.0168C21.5984 18.3317 23.7878 17.2668 25.7498 15.867C25.7594 15.8605 25.7674 15.852 25.7734 15.8422C25.7793 15.8323 25.7831 15.8214 25.7843 15.81C26.3238 10.4276 24.8802 5.75107 21.9551 1.60705C21.9479 1.59358 21.9361 1.58308 21.9217 1.57746ZM8.65374 12.9741C7.37842 12.9741 6.32644 11.8445 6.32644 10.4593C6.32644 9.07305 7.35792 7.94459 8.65374 7.94459C9.95928 7.94459 11.0016 9.08256 10.9811 10.4593C10.9811 11.8456 9.94957 12.9741 8.65374 12.9741ZM17.2584 12.9741C15.982 12.9741 14.9311 11.8445 14.9311 10.4593C14.9311 9.07305 15.9615 7.94459 17.2584 7.94459C18.564 7.94459 19.6062 9.08256 19.5857 10.4593C19.5857 11.8456 18.565 12.9741 17.2584 12.9741Z" fill="#A3A3B5"/>
</svg>
