<svg width="27" height="26" viewBox="0 0 27 26" fill="none" xmlns="http://www.w3.org/2000/svg">
<path d="M13.843 0C6.69298 0 0.895508 5.6774 0.895508 12.6793C0.895508 19.6813 6.69298 25.3587 13.843 25.3587C20.993 25.3587 26.7905 19.6813 26.7905 12.6793C26.7905 5.6774 20.993 0 13.843 0ZM21.2416 7.18024L20.0624 8.28685C19.9584 8.36326 19.9092 8.48779 19.9295 8.60949V16.752C19.9092 16.8765 19.9584 17.0011 20.0624 17.0746L21.2184 18.1813V18.4275H15.4152V18.1926L16.6088 17.0577C16.7273 16.9416 16.7273 16.9077 16.7273 16.735V10.1463L13.4037 18.3992H12.9557L9.08884 10.1463V15.6793C9.05416 15.9114 9.13797 16.1463 9.30559 16.3133L10.8604 18.1558V18.402H6.44443V18.1558L7.99928 16.3133C8.0812 16.2304 8.14217 16.1299 8.1773 16.0199C8.21243 15.9098 8.22075 15.7932 8.20159 15.6793V9.28308C8.22182 9.10478 8.15246 8.93213 8.01373 8.81044L6.63228 7.18024V6.93401H10.924L14.236 14.052L17.1521 6.93967H21.2416V7.18024Z" fill="#A3A3B5"/>
</svg>
