<svg width="32" height="32" viewBox="0 0 32 32" fill="none" xmlns="http://www.w3.org/2000/svg">
<path d="M28.686 8.44531C27.7337 8.85854 26.7107 9.13774 25.6353 9.26394C26.745 8.61372 27.5751 7.59034 27.9709 6.38477C26.9284 6.99119 25.7874 7.41805 24.5975 7.64678C23.7973 6.81013 22.7375 6.25558 21.5825 6.06923C20.4275 5.88289 19.2421 6.07517 18.2101 6.61623C17.1782 7.15729 16.3575 8.01685 15.8755 9.06147C15.3936 10.1061 15.2772 11.2773 15.5446 12.3933C13.4322 12.2894 11.3656 11.7517 9.47908 10.8151C7.59255 9.87849 5.9282 8.56387 4.59406 6.95658C4.13788 7.72719 3.87558 8.62065 3.87558 9.57219C3.87507 10.4288 4.09048 11.2723 4.50269 12.0278C4.9149 12.7833 5.51116 13.4275 6.23858 13.9032C5.39497 13.8769 4.56997 13.6537 3.83224 13.2521V13.3191C3.83216 14.5206 4.25653 15.685 5.03334 16.6149C5.81016 17.5448 6.89157 18.1828 8.09409 18.4208C7.3115 18.6282 6.49101 18.6588 5.69459 18.5101C6.03387 19.5439 6.69476 20.4479 7.58473 21.0955C8.4747 21.7432 9.54921 22.1021 10.6578 22.122C8.77589 23.5687 6.45172 24.3535 4.05919 24.35C3.63538 24.3501 3.21193 24.3259 2.79102 24.2774C5.21957 25.8066 8.04658 26.6181 10.9338 26.6149C20.7074 26.6149 26.0504 18.6877 26.0504 11.8125C26.0504 11.5892 26.0447 11.3636 26.0345 11.1402C27.0737 10.4042 27.9708 9.49278 28.6837 8.44866L28.686 8.44531Z" fill="#A3A3B5"/>
</svg>
