<svg width="27" height="21" viewBox="0 0 27 21" fill="none" xmlns="http://www.w3.org/2000/svg">
<path d="M26.686 2.44531C25.7337 2.85854 24.7107 3.13774 23.6353 3.26394C24.745 2.61372 25.5751 1.59034 25.9709 0.384767C24.9284 0.991192 23.7874 1.41805 22.5975 1.64678C21.7973 0.810127 20.7375 0.255579 19.5825 0.0692347C18.4275 -0.11711 17.2421 0.0751734 16.2101 0.616232C15.1782 1.15729 14.3575 2.01685 13.8755 3.06147C13.3936 4.10608 13.2772 5.2773 13.5446 6.39329C11.4322 6.28942 9.36561 5.75173 7.47908 4.81511C5.59255 3.87849 3.9282 2.56387 2.59406 0.956582C2.13788 1.72719 1.87558 2.62065 1.87558 3.57219C1.87507 4.42879 2.09048 5.27227 2.50269 6.02779C2.9149 6.78331 3.51116 7.42751 4.23858 7.90324C3.39497 7.87695 2.56997 7.65372 1.83224 7.25213V7.31914C1.83216 8.52055 2.25653 9.685 3.03334 10.6149C3.81016 11.5448 4.89157 12.1828 6.09409 12.4208C5.3115 12.6282 4.49101 12.6588 3.69459 12.5101C4.03387 13.5439 4.69476 14.4479 5.58473 15.0955C6.4747 15.7432 7.54921 16.1021 8.65781 16.122C6.77589 17.5687 4.45172 18.3535 2.05919 18.35C1.63538 18.3501 1.21193 18.3259 0.791016 18.2774C3.21957 19.8066 6.04658 20.6181 8.9338 20.6149C18.7074 20.6149 24.0504 12.6877 24.0504 5.81254C24.0504 5.58917 24.0447 5.36357 24.0345 5.14021C25.0737 4.40419 25.9708 3.49278 26.6837 2.44866L26.686 2.44531Z" fill="#A3A3B5"/>
</svg>
