<svg width="29" height="21" viewBox="0 0 29 21" fill="none" xmlns="http://www.w3.org/2000/svg">
<path d="M13.0533 17.5019C13.5063 17.5019 13.914 17.8653 13.914 18.3651C13.914 18.8194 13.5516 19.2282 13.0533 19.2282C12.6002 19.2282 12.1925 18.8648 12.1925 18.3651C12.1925 17.8653 12.6002 17.5019 13.0533 17.5019ZM26.3724 12.232C25.9194 12.232 25.5117 11.8685 25.5117 11.3688C25.5117 10.9145 25.8741 10.5056 26.3724 10.5056C26.8254 10.5056 27.2332 10.8691 27.2332 11.3688C27.2332 11.8231 26.8254 12.232 26.3724 12.232ZM26.3724 8.73387C24.9227 8.73387 23.7448 9.91505 23.7448 11.3688C23.7448 11.6414 23.7901 11.914 23.8807 12.1866L15.2278 16.8204C14.7295 16.0935 13.914 15.6847 13.0533 15.6847C12.0566 15.6847 11.1505 16.2753 10.6975 17.1384L2.90537 13.0497C2.08991 12.5954 1.45566 11.278 1.54627 10.0059C1.59157 9.36989 1.81809 8.87016 2.13521 8.68844C2.36173 8.55215 2.58824 8.59758 2.90537 8.73387L2.95067 8.7793C5.03462 9.86962 11.7848 13.4132 12.0566 13.5495C12.5096 13.7312 12.7362 13.822 13.5063 13.4586L27.4597 6.18978C27.6862 6.09892 27.9127 5.9172 27.9127 5.59919C27.9127 5.19032 27.505 5.0086 27.505 5.0086C26.6895 4.64516 25.4664 4.05457 24.2885 3.50941C21.7515 2.32822 18.8521 0.96532 17.5836 0.283868C16.4963 -0.306724 15.5903 0.193008 15.4543 0.283868L15.1372 0.420158C9.38372 3.32769 1.77279 7.09839 1.31975 7.37097C0.549601 7.82527 0.0512655 8.7793 0.0059623 9.96048C-0.0846441 11.8231 0.866723 13.7766 2.22582 14.4581L10.471 18.7285C10.6522 20.0005 11.7848 21 13.0533 21C14.503 21 15.6356 19.8642 15.6809 18.4105L24.7415 13.504C25.1945 13.8675 25.7835 14.0492 26.3724 14.0492C27.8221 14.0492 29 12.868 29 11.4142C29 9.91505 27.8221 8.73387 26.3724 8.73387Z" fill="#A3A3B5"/>
</svg>
