<svg width="64" height="96" viewBox="0 0 64 96" fill="none" xmlns="http://www.w3.org/2000/svg">
<g filter="url(#filter0_b_11_1015)">
<path opacity="0.6" d="M48.7013 71.3506C48.7013 84.7991 37.7991 95.7013 24.3507 95.7013C10.9022 95.7013 7.65721e-06 84.7991 7.65721e-06 71.3506C7.65721e-06 57.9022 10.9022 47 24.3507 47C37.7991 47 48.7013 57.9022 48.7013 71.3506Z" fill="#377DFF"/>
<g opacity="0.6" filter="url(#filter1_b_11_1015)">
<path d="M24.4487 18.6708C24.4478 22.3657 25.5826 25.978 27.7097 29.0513C29.8368 32.1246 32.8607 34.5212 36.3996 35.9382L36.3996 87.4584L39.8731 90.8077L44.1718 90.8077L50.6686 84.5431L50.6686 80.5066L46.4824 76.4628L46.4824 72.6433L49.1307 70.0897L49.1307 61.163L46.2724 58.4069L49.1382 55.6435L49.1382 43.3458L54.8623 43.3458L53.1518 35.1063C56.2064 33.497 58.7552 31.1244 60.5306 28.2375C62.3061 25.3506 63.2427 22.0561 63.2422 18.6998C63.2422 13.7403 61.199 8.98391 57.5621 5.47703C53.9252 1.97015 48.9925 7.78561e-07 43.8492 5.50674e-07C38.7098 -0.00192272 33.7797 1.9634 30.142 5.46424C26.5044 8.96507 24.4567 13.7151 24.4487 18.6708V18.6708ZM49.1307 11.0173C49.1307 11.6853 48.9936 12.3468 48.7274 12.9635C48.4611 13.5802 48.071 14.1401 47.5793 14.6108C47.0877 15.0815 46.5044 15.4537 45.8629 15.706C45.2214 15.9584 44.5345 16.0858 43.8417 16.0811C42.4489 16.0811 41.1132 15.5476 40.1283 14.5979C39.1435 13.6483 38.5902 12.3603 38.5902 11.0173C38.5853 10.3493 38.7174 9.68692 38.9791 9.06837C39.2408 8.44983 39.6269 7.88732 40.115 7.41327C40.6032 6.93922 41.1837 6.563 41.8233 6.30626C42.4629 6.04952 43.1489 5.91735 43.8417 5.91736C44.5363 5.91736 45.224 6.04928 45.8657 6.30557C46.5074 6.56187 47.0905 6.93754 47.5816 7.41111C48.0727 7.88468 48.4623 8.44688 48.7281 9.06564C48.9939 9.68439 49.1307 10.3476 49.1307 11.0173V11.0173Z" fill="#78A7FF"/>
</g>
</g>
<defs>
<filter id="filter0_b_11_1015" x="-26" y="-26" width="115.242" height="147.701" filterUnits="userSpaceOnUse" color-interpolation-filters="sRGB">
<feFlood flood-opacity="0" result="BackgroundImageFix"/>
<feGaussianBlur in="BackgroundImage" stdDeviation="13"/>
<feComposite in2="SourceAlpha" operator="in" result="effect1_backgroundBlur_11_1015"/>
<feBlend mode="normal" in="SourceGraphic" in2="effect1_backgroundBlur_11_1015" result="shape"/>
</filter>
<filter id="filter1_b_11_1015" x="-1.55127" y="-26" width="90.7935" height="142.808" filterUnits="userSpaceOnUse" color-interpolation-filters="sRGB">
<feFlood flood-opacity="0" result="BackgroundImageFix"/>
<feGaussianBlur in="BackgroundImage" stdDeviation="13"/>
<feComposite in2="SourceAlpha" operator="in" result="effect1_backgroundBlur_11_1015"/>
<feBlend mode="normal" in="SourceGraphic" in2="effect1_backgroundBlur_11_1015" result="shape"/>
</filter>
</defs>
</svg>
