<svg width="360" height="540" viewBox="0 0 360 540" fill="none" xmlns="http://www.w3.org/2000/svg">
<rect width="360" height="540" rx="8" fill="#1B1A3B"/>
<rect x="20" y="429" width="320" height="60" rx="8" fill="#303254"/>
<path d="M59.8574 448.468H40.0996V466.425H59.8574V448.468Z" fill="white"/>
<path d="M40.9155 465.633L40.9129 465.632C40.5642 465.406 40.3537 465.032 40.3283 464.627L40.328 464.621L40.328 464.621C40.3158 464.381 40.3955 464.162 40.4843 463.97C40.5723 463.781 40.7018 463.554 40.854 463.287L40.8639 463.269L40.8643 463.269L48.5258 449.773L48.526 449.773L48.5263 449.772C48.685 449.493 48.8197 449.256 48.9429 449.078C49.0643 448.902 49.2155 448.719 49.433 448.609L49.4332 448.609C49.7995 448.422 50.235 448.422 50.6013 448.609L50.6015 448.609C50.8189 448.719 50.9702 448.902 51.0916 449.078C51.2148 449.256 51.3495 449.493 51.5083 449.772C51.5083 449.772 51.5083 449.772 51.5084 449.772L51.5085 449.773L53.0828 452.519L53.0829 452.519L53.0909 452.533C53.0909 452.533 53.0909 452.533 53.091 452.533C53.1036 452.555 53.1161 452.577 53.1285 452.599C53.4445 453.15 53.6569 453.521 53.7519 453.919C53.8568 454.353 53.8567 454.81 53.7517 455.244C53.654 455.653 53.4371 456.032 53.1026 456.616L53.088 456.641L53.0868 456.643L49.0634 463.751L49.0624 463.752L49.052 463.771L49.0519 463.771C49.0393 463.793 49.0268 463.815 49.0145 463.836C48.6962 464.393 48.4825 464.767 48.18 465.055L40.9155 465.633ZM40.9155 465.633C41.1178 465.763 41.3465 465.802 41.5573 465.82C41.765 465.837 42.0262 465.837 42.3339 465.837H42.3553H45.4584C45.4838 465.837 45.5089 465.837 45.5336 465.837C46.1919 465.838 46.6213 465.838 47.0137 465.729L47.0137 465.729M40.9155 465.633L47.0137 465.729M47.0137 465.729L47.0227 465.727M47.0137 465.729L47.0227 465.727M47.0227 465.727C47.4555 465.598 47.851 465.37 48.1796 465.056L47.0227 465.727ZM59.2586 463.309L59.2572 463.307L59.2267 463.254L59.2255 463.252L56.9983 459.444L56.9972 459.442L56.9718 459.4L56.9717 459.399L56.9606 459.381C56.8134 459.132 56.6866 458.918 56.5702 458.754C56.4515 458.588 56.3042 458.416 56.0943 458.309C55.728 458.123 55.2961 458.123 54.9299 458.309L54.9299 458.309L54.9263 458.311C54.7154 458.42 54.5666 458.597 54.4455 458.77C54.3229 458.944 54.1883 459.175 54.0294 459.449C54.0294 459.449 54.0294 459.449 54.0294 459.449C54.0292 459.449 54.0291 459.449 54.029 459.45L51.8101 463.257L51.8095 463.257L51.8019 463.271L51.8019 463.271L51.7911 463.289C51.6378 463.554 51.5072 463.779 51.4184 463.967C51.3287 464.157 51.2473 464.376 51.2596 464.617L51.2595 464.617L51.2599 464.623C51.285 465.025 51.493 465.403 51.8435 465.631C52.0468 465.763 52.2803 465.803 52.4903 465.82C52.6997 465.837 52.9636 465.837 53.2735 465.837H53.2947H57.7411H57.7627C58.0722 465.837 58.3367 465.837 58.5473 465.819C58.7594 465.801 58.9926 465.761 59.1967 465.627C59.5425 465.402 59.7609 465.024 59.7805 464.612L59.2811 464.588L59.7804 464.613C59.7924 464.376 59.7126 464.16 59.6259 463.976C59.5401 463.794 59.4146 463.578 59.2692 463.327L59.2586 463.309ZM65.4787 458.979C65.4787 467.527 58.5443 474.457 49.9894 474.457C41.4345 474.457 34.5 467.527 34.5 458.979C34.5 450.43 41.4345 443.5 49.9894 443.5C58.5443 443.5 65.4787 450.43 65.4787 458.979Z" fill="#E84142" stroke="white"/>
<rect x="291" y="449" width="35" height="19" rx="9.5" fill="#0059FF"/>
<circle cx="316.5" cy="458.5" r="7.5" fill="white"/>
<path d="M129.667 475.278H122.333C121.997 475.278 121.722 475.003 121.722 474.667V467.333C121.722 466.997 121.997 466.722 122.333 466.722H125.389C125.725 466.722 126 466.447 126 466.111C126 465.775 125.725 465.5 125.389 465.5H121.722C121.044 465.5 120.5 466.05 120.5 466.722V475.278C120.5 475.95 121.05 476.5 121.722 476.5H130.278C130.95 476.5 131.5 475.95 131.5 475.278V471.611C131.5 471.275 131.225 471 130.889 471C130.553 471 130.278 471.275 130.278 471.611V474.667C130.278 475.003 130.003 475.278 129.667 475.278ZM127.222 466.111C127.222 466.447 127.497 466.722 127.833 466.722H129.416L124.766 471.373C124.527 471.611 124.527 471.996 124.766 472.234C125.004 472.473 125.389 472.473 125.627 472.234L130.278 467.584V469.167C130.278 469.503 130.553 469.778 130.889 469.778C131.225 469.778 131.5 469.503 131.5 469.167V466.111C131.5 465.775 131.225 465.5 130.889 465.5H127.833C127.497 465.5 127.222 465.775 127.222 466.111Z" fill="#545C7B"/>
<path d="M84.904 451.728H80.248L79.448 454H77.544L81.528 442.864H83.64L87.624 454H85.704L84.904 451.728ZM84.392 450.24L82.584 445.072L80.76 450.24H84.392ZM92.7643 452.368L95.2603 445.184H97.1962L93.8363 454H91.6603L88.3163 445.184H90.2682L92.7643 452.368ZM97.967 449.552C97.967 448.667 98.1483 447.883 98.511 447.2C98.8843 446.517 99.3857 445.989 100.015 445.616C100.655 445.232 101.359 445.04 102.127 445.04C102.82 445.04 103.423 445.179 103.935 445.456C104.458 445.723 104.874 446.059 105.183 446.464V445.184H107.023V454H105.183V452.688C104.874 453.104 104.452 453.451 103.919 453.728C103.386 454.005 102.778 454.144 102.095 454.144C101.338 454.144 100.644 453.952 100.015 453.568C99.3857 453.173 98.8843 452.629 98.511 451.936C98.1483 451.232 97.967 450.437 97.967 449.552ZM105.183 449.584C105.183 448.976 105.055 448.448 104.799 448C104.554 447.552 104.228 447.211 103.823 446.976C103.418 446.741 102.98 446.624 102.511 446.624C102.042 446.624 101.604 446.741 101.199 446.976C100.794 447.2 100.463 447.536 100.207 447.984C99.9617 448.421 99.839 448.944 99.839 449.552C99.839 450.16 99.9617 450.693 100.207 451.152C100.463 451.611 100.794 451.963 101.199 452.208C101.615 452.443 102.052 452.56 102.511 452.56C102.98 452.56 103.418 452.443 103.823 452.208C104.228 451.973 104.554 451.632 104.799 451.184C105.055 450.725 105.183 450.192 105.183 449.584ZM111.243 442.16V454H109.419V442.16H111.243ZM113.03 449.552C113.03 448.667 113.211 447.883 113.574 447.2C113.947 446.517 114.448 445.989 115.078 445.616C115.718 445.232 116.422 445.04 117.19 445.04C117.883 445.04 118.486 445.179 118.998 445.456C119.52 445.723 119.936 446.059 120.246 446.464V445.184H122.086V454H120.246V452.688C119.936 453.104 119.515 453.451 118.982 453.728C118.448 454.005 117.84 454.144 117.158 454.144C116.4 454.144 115.707 453.952 115.078 453.568C114.448 453.173 113.947 452.629 113.574 451.936C113.211 451.232 113.03 450.437 113.03 449.552ZM120.246 449.584C120.246 448.976 120.118 448.448 119.862 448C119.616 447.552 119.291 447.211 118.886 446.976C118.48 446.741 118.043 446.624 117.574 446.624C117.104 446.624 116.667 446.741 116.262 446.976C115.856 447.2 115.526 447.536 115.27 447.984C115.024 448.421 114.902 448.944 114.902 449.552C114.902 450.16 115.024 450.693 115.27 451.152C115.526 451.611 115.856 451.963 116.262 452.208C116.678 452.443 117.115 452.56 117.574 452.56C118.043 452.56 118.48 452.443 118.886 452.208C119.291 451.973 119.616 451.632 119.862 451.184C120.118 450.725 120.246 450.192 120.246 449.584ZM128.929 445.04C129.623 445.04 130.241 445.184 130.785 445.472C131.34 445.76 131.772 446.187 132.081 446.752C132.391 447.317 132.545 448 132.545 448.8V454H130.737V449.072C130.737 448.283 130.54 447.68 130.145 447.264C129.751 446.837 129.212 446.624 128.529 446.624C127.847 446.624 127.303 446.837 126.897 447.264C126.503 447.68 126.305 448.283 126.305 449.072V454H124.481V445.184H126.305V446.192C126.604 445.829 126.983 445.547 127.441 445.344C127.911 445.141 128.407 445.04 128.929 445.04ZM134.264 449.584C134.264 448.677 134.445 447.883 134.808 447.2C135.181 446.507 135.693 445.973 136.344 445.6C136.995 445.227 137.741 445.04 138.584 445.04C139.651 445.04 140.531 445.296 141.224 445.808C141.928 446.309 142.403 447.029 142.648 447.968H140.68C140.52 447.531 140.264 447.189 139.912 446.944C139.56 446.699 139.117 446.576 138.584 446.576C137.837 446.576 137.24 446.843 136.792 447.376C136.355 447.899 136.136 448.635 136.136 449.584C136.136 450.533 136.355 451.275 136.792 451.808C137.24 452.341 137.837 452.608 138.584 452.608C139.64 452.608 140.339 452.144 140.68 451.216H142.648C142.392 452.112 141.912 452.827 141.208 453.36C140.504 453.883 139.629 454.144 138.584 454.144C137.741 454.144 136.995 453.957 136.344 453.584C135.693 453.2 135.181 452.667 134.808 451.984C134.445 451.291 134.264 450.491 134.264 449.584ZM149.026 445.04C149.698 445.04 150.295 445.184 150.818 445.472C151.351 445.76 151.767 446.187 152.066 446.752C152.375 447.317 152.53 448 152.53 448.8V454H150.722V449.072C150.722 448.283 150.524 447.68 150.13 447.264C149.735 446.837 149.196 446.624 148.514 446.624C147.831 446.624 147.287 446.837 146.882 447.264C146.487 447.68 146.29 448.283 146.29 449.072V454H144.466V442.16H146.29V446.208C146.599 445.835 146.988 445.547 147.458 445.344C147.938 445.141 148.46 445.04 149.026 445.04ZM162.936 449.376C162.936 449.707 162.915 450.005 162.872 450.272H156.136C156.19 450.976 156.451 451.541 156.92 451.968C157.39 452.395 157.966 452.608 158.648 452.608C159.63 452.608 160.323 452.197 160.728 451.376H162.696C162.43 452.187 161.944 452.853 161.24 453.376C160.547 453.888 159.683 454.144 158.648 454.144C157.806 454.144 157.048 453.957 156.376 453.584C155.715 453.2 155.192 452.667 154.808 451.984C154.435 451.291 154.248 450.491 154.248 449.584C154.248 448.677 154.43 447.883 154.792 447.2C155.166 446.507 155.683 445.973 156.344 445.6C157.016 445.227 157.784 445.04 158.648 445.04C159.48 445.04 160.222 445.221 160.872 445.584C161.523 445.947 162.03 446.459 162.392 447.12C162.755 447.771 162.936 448.523 162.936 449.376ZM161.032 448.8C161.022 448.128 160.782 447.589 160.312 447.184C159.843 446.779 159.262 446.576 158.568 446.576C157.939 446.576 157.4 446.779 156.952 447.184C156.504 447.579 156.238 448.117 156.152 448.8H161.032Z" fill="white"/>
<path d="M83.916 474.012H79.842L79.142 476H77.476L80.962 466.256H82.81L86.296 476H84.616L83.916 474.012ZM83.468 472.71L81.886 468.188L80.29 472.71H83.468ZM96.1977 466.27L92.5437 476H90.6957L87.0277 466.27H88.7357L91.6197 474.362L94.5177 466.27H96.1977ZM103.398 474.012H99.3244L98.6244 476H96.9584L100.444 466.256H102.292L105.778 476H104.098L103.398 474.012ZM102.95 472.71L101.368 468.188L99.7724 472.71H102.95ZM111.76 471.142L114.784 476H112.992L110.794 472.472L108.736 476H106.958L109.982 471.142L106.944 466.27H108.736L110.948 469.826L113.02 466.27H114.798L111.76 471.142Z" fill="#545C7B"/>
<rect x="20.5" y="73.5" width="319" height="47" rx="7.5" fill="#181735"/>
<path d="M45.0625 102.625C48.6869 102.625 51.625 99.6869 51.625 96.0625C51.625 92.4381 48.6869 89.5 45.0625 89.5C41.4381 89.5 38.5 92.4381 38.5 96.0625C38.5 99.6869 41.4381 102.625 45.0625 102.625Z" stroke="#545C7B" stroke-width="2" stroke-linecap="round" stroke-linejoin="round"/>
<path d="M49.7021 100.703L53.4991 104.5" stroke="#545C7B" stroke-width="2" stroke-linecap="round" stroke-linejoin="round"/>
<rect x="20.5" y="73.5" width="319" height="47" rx="7.5" stroke="#2C2B52"/>
<circle cx="312" cy="97" r="12" fill="#303254"/>
<path d="M316.727 98.81H313.749V101.925H310.977V98.81H308V96.1325H310.977V93H313.749V96.1325H316.727V98.81Z" fill="#72798D"/>
<rect x="20" y="151" width="320" height="60" rx="8" fill="#303254"/>
<path d="M65.5 181C65.5 189.56 58.5604 196.5 50 196.5C41.4396 196.5 34.5 189.56 34.5 181C34.5 172.44 41.4396 165.5 50 165.5C58.5604 165.5 65.5 172.44 65.5 181Z" fill="#222E4C" stroke="white"/>
<path d="M48.9556 185.083C48.7158 185.015 48.4582 185.069 48.2766 185.24L48.2559 185.26C49.9258 185.998 51.9518 185.685 53.3182 184.318C54.6841 182.953 54.9974 180.928 54.2606 179.258C54.2541 179.265 54.2476 179.272 54.241 179.279C54.0701 179.461 54.0155 179.718 54.0838 179.958C54.4831 181.359 54.1327 182.931 53.0316 184.032C51.9298 185.134 50.3573 185.484 48.9556 185.083Z" fill="#F6F6F6"/>
<path d="M55.2121 180.149C55.6671 181.855 55.1768 183.688 53.9324 184.933C52.6835 186.182 50.8446 186.67 49.1334 186.208C48.5081 186.039 47.8585 186.172 47.374 186.562C49.73 187.968 52.7074 187.603 54.6549 185.655C56.6015 183.709 56.9671 180.733 55.563 178.377C55.1754 178.865 55.044 179.518 55.2121 180.149Z" fill="#F6F6F6"/>
<path d="M47.8709 184.035C47.6785 184.228 47.3659 184.228 47.1726 184.036L47.169 184.032C45.5526 182.415 45.5526 179.785 47.169 178.169C48.7854 176.553 51.4155 176.553 53.032 178.169C53.0331 178.17 53.0344 178.171 53.0355 178.173C53.2297 178.367 53.2212 178.686 53.026 178.879C51.3349 180.56 49.5509 182.344 47.8709 184.035ZM47.6886 176.171C49.5128 175.228 51.6982 175.48 53.3239 176.674C53.6562 177.007 53.6561 177.545 53.3235 177.877L53.3186 177.882C51.5441 176.108 48.6568 176.108 46.8823 177.882C45.1079 179.657 45.1079 182.544 46.8824 184.319C46.8824 184.319 46.8721 184.329 46.8543 184.347C46.5235 184.654 46.0093 184.65 45.6835 184.334C43.7833 181.742 44.4516 177.843 47.6886 176.171ZM53.7577 178.669C55.2824 177.073 57.5629 174.669 59 173C58.6663 173.322 58.091 173.79 57.4926 174.256C56.3725 175.127 54.4666 175.664 53.202 175.02C50.6384 173.715 47.4159 174.133 45.2742 176.274C43.1326 178.416 42.7145 181.638 44.0199 184.202C44.6638 185.467 44.1269 187.373 43.2555 188.493C42.79 189.091 42.3224 189.666 42 190L42.9262 189.147L43.4612 188.667C46.9357 185.553 50.5173 182.028 53.7577 178.669Z" fill="#F6F6F6"/>
<rect x="291" y="171" width="35" height="19" rx="9.5" fill="#0059FF"/>
<circle cx="316.5" cy="180.5" r="7.5" fill="white"/>
<path d="M129.667 197.278H122.333C121.997 197.278 121.722 197.003 121.722 196.667V189.333C121.722 188.997 121.997 188.722 122.333 188.722H125.389C125.725 188.722 126 188.447 126 188.111C126 187.775 125.725 187.5 125.389 187.5H121.722C121.044 187.5 120.5 188.05 120.5 188.722V197.278C120.5 197.95 121.05 198.5 121.722 198.5H130.278C130.95 198.5 131.5 197.95 131.5 197.278V193.611C131.5 193.275 131.225 193 130.889 193C130.553 193 130.278 193.275 130.278 193.611V196.667C130.278 197.003 130.003 197.278 129.667 197.278ZM127.222 188.111C127.222 188.447 127.497 188.722 127.833 188.722H129.416L124.766 193.373C124.527 193.611 124.527 193.996 124.766 194.234C125.004 194.473 125.389 194.473 125.627 194.234L130.278 189.584V191.167C130.278 191.503 130.553 191.778 130.889 191.778C131.225 191.778 131.5 191.503 131.5 191.167V188.111C131.5 187.775 131.225 187.5 130.889 187.5H127.833C127.497 187.5 127.222 187.775 127.222 188.111Z" fill="#545C7B"/>
<path d="M86.248 168.08C85.96 167.525 85.56 167.109 85.048 166.832C84.536 166.544 83.944 166.4 83.272 166.4C82.536 166.4 81.88 166.565 81.304 166.896C80.728 167.227 80.2747 167.696 79.944 168.304C79.624 168.912 79.464 169.616 79.464 170.416C79.464 171.216 79.624 171.925 79.944 172.544C80.2747 173.152 80.728 173.621 81.304 173.952C81.88 174.283 82.536 174.448 83.272 174.448C84.264 174.448 85.0693 174.171 85.688 173.616C86.3067 173.061 86.6853 172.309 86.824 171.36H82.648V169.904H88.776V171.328C88.6587 172.192 88.3493 172.987 87.848 173.712C87.3573 174.437 86.712 175.019 85.912 175.456C85.1227 175.883 84.2427 176.096 83.272 176.096C82.2267 176.096 81.272 175.856 80.408 175.376C79.544 174.885 78.856 174.208 78.344 173.344C77.8427 172.48 77.592 171.504 77.592 170.416C77.592 169.328 77.8427 168.352 78.344 167.488C78.856 166.624 79.544 165.952 80.408 165.472C81.2827 164.981 82.2373 164.736 83.272 164.736C84.456 164.736 85.5067 165.029 86.424 165.616C87.352 166.192 88.024 167.013 88.44 168.08H86.248ZM95.023 167.04C95.7163 167.04 96.335 167.184 96.879 167.472C97.4337 167.76 97.8657 168.187 98.175 168.752C98.4843 169.317 98.639 170 98.639 170.8V176H96.831V171.072C96.831 170.283 96.6337 169.68 96.239 169.264C95.8443 168.837 95.3057 168.624 94.623 168.624C93.9403 168.624 93.3963 168.837 92.991 169.264C92.5963 169.68 92.399 170.283 92.399 171.072V176H90.575V167.184H92.399V168.192C92.6977 167.829 93.0763 167.547 93.535 167.344C94.0043 167.141 94.5003 167.04 95.023 167.04ZM104.79 176.144C103.958 176.144 103.206 175.957 102.534 175.584C101.862 175.2 101.334 174.667 100.95 173.984C100.566 173.291 100.374 172.491 100.374 171.584C100.374 170.688 100.571 169.893 100.966 169.2C101.36 168.507 101.899 167.973 102.582 167.6C103.264 167.227 104.027 167.04 104.87 167.04C105.712 167.04 106.475 167.227 107.158 167.6C107.84 167.973 108.379 168.507 108.774 169.2C109.168 169.893 109.366 170.688 109.366 171.584C109.366 172.48 109.163 173.275 108.758 173.968C108.352 174.661 107.798 175.2 107.094 175.584C106.4 175.957 105.632 176.144 104.79 176.144ZM104.79 174.56C105.259 174.56 105.696 174.448 106.102 174.224C106.518 174 106.854 173.664 107.11 173.216C107.366 172.768 107.494 172.224 107.494 171.584C107.494 170.944 107.371 170.405 107.126 169.968C106.88 169.52 106.555 169.184 106.15 168.96C105.744 168.736 105.307 168.624 104.838 168.624C104.368 168.624 103.931 168.736 103.526 168.96C103.131 169.184 102.816 169.52 102.582 169.968C102.347 170.405 102.23 170.944 102.23 171.584C102.23 172.533 102.47 173.269 102.95 173.792C103.44 174.304 104.054 174.56 104.79 174.56ZM112.993 164.16V176H111.169V164.16H112.993ZM114.78 171.552C114.78 170.667 114.961 169.883 115.324 169.2C115.697 168.517 116.198 167.989 116.828 167.616C117.468 167.232 118.172 167.04 118.94 167.04C119.633 167.04 120.236 167.179 120.748 167.456C121.27 167.723 121.686 168.059 121.996 168.464V167.184H123.836V176H121.996V174.688C121.686 175.104 121.265 175.451 120.732 175.728C120.198 176.005 119.59 176.144 118.908 176.144C118.15 176.144 117.457 175.952 116.828 175.568C116.198 175.173 115.697 174.629 115.324 173.936C114.961 173.232 114.78 172.437 114.78 171.552ZM121.996 171.584C121.996 170.976 121.868 170.448 121.612 170C121.366 169.552 121.041 169.211 120.636 168.976C120.23 168.741 119.793 168.624 119.324 168.624C118.854 168.624 118.417 168.741 118.012 168.976C117.606 169.2 117.276 169.536 117.02 169.984C116.774 170.421 116.652 170.944 116.652 171.552C116.652 172.16 116.774 172.693 117.02 173.152C117.276 173.611 117.606 173.963 118.012 174.208C118.428 174.443 118.865 174.56 119.324 174.56C119.793 174.56 120.23 174.443 120.636 174.208C121.041 173.973 121.366 173.632 121.612 173.184C121.868 172.725 121.996 172.192 121.996 171.584ZM130.679 167.04C131.373 167.04 131.991 167.184 132.535 167.472C133.09 167.76 133.522 168.187 133.831 168.752C134.141 169.317 134.295 170 134.295 170.8V176H132.487V171.072C132.487 170.283 132.29 169.68 131.895 169.264C131.501 168.837 130.962 168.624 130.279 168.624C129.597 168.624 129.053 168.837 128.647 169.264C128.253 169.68 128.055 170.283 128.055 171.072V176H126.231V167.184H128.055V168.192C128.354 167.829 128.733 167.547 129.191 167.344C129.661 167.141 130.157 167.04 130.679 167.04ZM136.014 171.552C136.014 170.667 136.195 169.883 136.558 169.2C136.931 168.517 137.433 167.989 138.062 167.616C138.702 167.232 139.411 167.04 140.19 167.04C140.766 167.04 141.331 167.168 141.886 167.424C142.451 167.669 142.899 168 143.23 168.416V164.16H145.07V176H143.23V174.672C142.931 175.099 142.515 175.451 141.982 175.728C141.459 176.005 140.857 176.144 140.174 176.144C139.406 176.144 138.702 175.952 138.062 175.568C137.433 175.173 136.931 174.629 136.558 173.936C136.195 173.232 136.014 172.437 136.014 171.552ZM143.23 171.584C143.23 170.976 143.102 170.448 142.846 170C142.601 169.552 142.275 169.211 141.87 168.976C141.465 168.741 141.027 168.624 140.558 168.624C140.089 168.624 139.651 168.741 139.246 168.976C138.841 169.2 138.51 169.536 138.254 169.984C138.009 170.421 137.886 170.944 137.886 171.552C137.886 172.16 138.009 172.693 138.254 173.152C138.51 173.611 138.841 173.963 139.246 174.208C139.662 174.443 140.099 174.56 140.558 174.56C141.027 174.56 141.465 174.443 141.87 174.208C142.275 173.973 142.601 173.632 142.846 173.184C143.102 172.725 143.23 172.192 143.23 171.584Z" fill="white"/>
<path d="M85.092 191.07C84.84 190.585 84.49 190.221 84.042 189.978C83.594 189.726 83.076 189.6 82.488 189.6C81.844 189.6 81.27 189.745 80.766 190.034C80.262 190.323 79.8653 190.734 79.576 191.266C79.296 191.798 79.156 192.414 79.156 193.114C79.156 193.814 79.296 194.435 79.576 194.976C79.8653 195.508 80.262 195.919 80.766 196.208C81.27 196.497 81.844 196.642 82.488 196.642C83.356 196.642 84.0607 196.399 84.602 195.914C85.1433 195.429 85.4747 194.771 85.596 193.94H81.942V192.666H87.304V193.912C87.2013 194.668 86.9307 195.363 86.492 195.998C86.0627 196.633 85.498 197.141 84.798 197.524C84.1073 197.897 83.3373 198.084 82.488 198.084C81.5733 198.084 80.738 197.874 79.982 197.454C79.226 197.025 78.624 196.432 78.176 195.676C77.7373 194.92 77.518 194.066 77.518 193.114C77.518 192.162 77.7373 191.308 78.176 190.552C78.624 189.796 79.226 189.208 79.982 188.788C80.7473 188.359 81.5827 188.144 82.488 188.144C83.524 188.144 84.4433 188.401 85.246 188.914C86.058 189.418 86.646 190.137 87.01 191.07H85.092ZM96.8721 198H95.2761L90.4741 190.734V198H88.8781V188.256H90.4741L95.2761 195.508V188.256H96.8721V198ZM103.406 198.098C102.501 198.098 101.665 197.888 100.9 197.468C100.144 197.039 99.542 196.446 99.094 195.69C98.6553 194.925 98.436 194.066 98.436 193.114C98.436 192.162 98.6553 191.308 99.094 190.552C99.542 189.796 100.144 189.208 100.9 188.788C101.665 188.359 102.501 188.144 103.406 188.144C104.321 188.144 105.156 188.359 105.912 188.788C106.677 189.208 107.279 189.796 107.718 190.552C108.157 191.308 108.376 192.162 108.376 193.114C108.376 194.066 108.157 194.925 107.718 195.69C107.279 196.446 106.677 197.039 105.912 197.468C105.156 197.888 104.321 198.098 103.406 198.098ZM103.406 196.712C104.05 196.712 104.624 196.567 105.128 196.278C105.632 195.979 106.024 195.559 106.304 195.018C106.593 194.467 106.738 193.833 106.738 193.114C106.738 192.395 106.593 191.765 106.304 191.224C106.024 190.683 105.632 190.267 105.128 189.978C104.624 189.689 104.05 189.544 103.406 189.544C102.762 189.544 102.188 189.689 101.684 189.978C101.18 190.267 100.783 190.683 100.494 191.224C100.214 191.765 100.074 192.395 100.074 193.114C100.074 193.833 100.214 194.467 100.494 195.018C100.783 195.559 101.18 195.979 101.684 196.278C102.188 196.567 102.762 196.712 103.406 196.712ZM116.232 188.27V189.572H113.642V198H112.046V189.572H109.442V188.27H116.232Z" fill="#545C7B"/>
<rect x="20" y="359" width="320" height="60" rx="8" fill="#303254"/>
<rect x="291" y="379" width="35" height="19" rx="9.5" fill="#0059FF"/>
<circle cx="316.5" cy="388.5" r="7.5" fill="white"/>
<path d="M216.667 405.278H209.333C208.997 405.278 208.722 405.003 208.722 404.667V397.333C208.722 396.997 208.997 396.722 209.333 396.722H212.389C212.725 396.722 213 396.447 213 396.111C213 395.775 212.725 395.5 212.389 395.5H208.722C208.044 395.5 207.5 396.05 207.5 396.722V405.278C207.5 405.95 208.05 406.5 208.722 406.5H217.278C217.95 406.5 218.5 405.95 218.5 405.278V401.611C218.5 401.275 218.225 401 217.889 401C217.553 401 217.278 401.275 217.278 401.611V404.667C217.278 405.003 217.003 405.278 216.667 405.278ZM214.222 396.111C214.222 396.447 214.497 396.722 214.833 396.722H216.416L211.766 401.373C211.527 401.611 211.527 401.996 211.766 402.234C212.004 402.473 212.389 402.473 212.627 402.234L217.278 397.584V399.167C217.278 399.503 217.553 399.778 217.889 399.778C218.225 399.778 218.5 399.503 218.5 399.167V396.111C218.5 395.775 218.225 395.5 217.889 395.5H214.833C214.497 395.5 214.222 395.775 214.222 396.111Z" fill="#545C7B"/>
<circle cx="50" cy="389" r="15.5" fill="#8C8DFC" stroke="white"/>
<path d="M54.9722 385.905C54.7146 386.161 54.3002 386.149 54.0539 385.881L53.3819 385.16C52.3964 384.089 50.7613 384.054 49.7198 385.067L45.2289 389.477L49.4846 389.582C49.843 389.593 50.123 389.896 50.1118 390.268C50.1006 390.641 49.8094 390.932 49.451 390.92L43.6275 390.769C43.2691 390.757 42.9891 390.455 43.0003 390.082L43.1459 384.089C43.1571 383.717 43.4483 383.426 43.8067 383.438C44.165 383.449 44.445 383.752 44.4338 384.124L44.333 388.511L48.8239 384.101C50.3805 382.577 52.8331 382.646 54.3114 384.241L54.9834 384.962C55.241 385.23 55.2298 385.649 54.9722 385.905Z" fill="white"/>
<path d="M45.028 392.096C45.2856 391.84 45.6999 391.851 45.9463 392.119L46.6183 392.841C47.6038 393.911 49.2388 393.946 50.2804 392.934L54.7712 388.523L50.5155 388.419C50.1572 388.407 49.8772 388.104 49.8884 387.732C49.8996 387.36 50.1908 387.069 50.5491 387.08L56.3727 387.232C56.7311 387.243 57.011 387.546 56.9998 387.918L56.8542 393.911C56.843 394.283 56.5519 394.574 56.1935 394.563C55.8351 394.551 55.5551 394.249 55.5663 393.876L55.6671 389.489L51.1763 393.899C49.6196 395.424 47.167 395.354 45.6887 393.76L45.0168 393.038C44.7592 392.771 44.7704 392.352 45.028 392.096Z" fill="white"/>
<path d="M86.248 376.08C85.96 375.525 85.56 375.109 85.048 374.832C84.536 374.544 83.944 374.4 83.272 374.4C82.536 374.4 81.88 374.565 81.304 374.896C80.728 375.227 80.2747 375.696 79.944 376.304C79.624 376.912 79.464 377.616 79.464 378.416C79.464 379.216 79.624 379.925 79.944 380.544C80.2747 381.152 80.728 381.621 81.304 381.952C81.88 382.283 82.536 382.448 83.272 382.448C84.264 382.448 85.0693 382.171 85.688 381.616C86.3067 381.061 86.6853 380.309 86.824 379.36H82.648V377.904H88.776V379.328C88.6587 380.192 88.3493 380.987 87.848 381.712C87.3573 382.437 86.712 383.019 85.912 383.456C85.1227 383.883 84.2427 384.096 83.272 384.096C82.2267 384.096 81.272 383.856 80.408 383.376C79.544 382.885 78.856 382.208 78.344 381.344C77.8427 380.48 77.592 379.504 77.592 378.416C77.592 377.328 77.8427 376.352 78.344 375.488C78.856 374.624 79.544 373.952 80.408 373.472C81.2827 372.981 82.2373 372.736 83.272 372.736C84.456 372.736 85.5067 373.029 86.424 373.616C87.352 374.192 88.024 375.013 88.44 376.08H86.248ZM95.023 375.04C95.7163 375.04 96.335 375.184 96.879 375.472C97.4337 375.76 97.8657 376.187 98.175 376.752C98.4843 377.317 98.639 378 98.639 378.8V384H96.831V379.072C96.831 378.283 96.6337 377.68 96.239 377.264C95.8443 376.837 95.3057 376.624 94.623 376.624C93.9403 376.624 93.3963 376.837 92.991 377.264C92.5963 377.68 92.399 378.283 92.399 379.072V384H90.575V375.184H92.399V376.192C92.6977 375.829 93.0763 375.547 93.535 375.344C94.0043 375.141 94.5003 375.04 95.023 375.04ZM104.79 384.144C103.958 384.144 103.206 383.957 102.534 383.584C101.862 383.2 101.334 382.667 100.95 381.984C100.566 381.291 100.374 380.491 100.374 379.584C100.374 378.688 100.571 377.893 100.966 377.2C101.36 376.507 101.899 375.973 102.582 375.6C103.264 375.227 104.027 375.04 104.87 375.04C105.712 375.04 106.475 375.227 107.158 375.6C107.84 375.973 108.379 376.507 108.774 377.2C109.168 377.893 109.366 378.688 109.366 379.584C109.366 380.48 109.163 381.275 108.758 381.968C108.352 382.661 107.798 383.2 107.094 383.584C106.4 383.957 105.632 384.144 104.79 384.144ZM104.79 382.56C105.259 382.56 105.696 382.448 106.102 382.224C106.518 382 106.854 381.664 107.11 381.216C107.366 380.768 107.494 380.224 107.494 379.584C107.494 378.944 107.371 378.405 107.126 377.968C106.88 377.52 106.555 377.184 106.15 376.96C105.744 376.736 105.307 376.624 104.838 376.624C104.368 376.624 103.931 376.736 103.526 376.96C103.131 377.184 102.816 377.52 102.582 377.968C102.347 378.405 102.23 378.944 102.23 379.584C102.23 380.533 102.47 381.269 102.95 381.792C103.44 382.304 104.054 382.56 104.79 382.56ZM114.369 384.144C113.675 384.144 113.051 384.021 112.497 383.776C111.953 383.52 111.521 383.179 111.201 382.752C110.881 382.315 110.71 381.829 110.689 381.296H112.577C112.609 381.669 112.785 381.984 113.105 382.24C113.435 382.485 113.846 382.608 114.337 382.608C114.849 382.608 115.243 382.512 115.521 382.32C115.809 382.117 115.953 381.861 115.953 381.552C115.953 381.221 115.793 380.976 115.473 380.816C115.163 380.656 114.667 380.48 113.985 380.288C113.323 380.107 112.785 379.931 112.369 379.76C111.953 379.589 111.59 379.328 111.281 378.976C110.982 378.624 110.833 378.16 110.833 377.584C110.833 377.115 110.971 376.688 111.249 376.304C111.526 375.909 111.921 375.6 112.433 375.376C112.955 375.152 113.553 375.04 114.225 375.04C115.227 375.04 116.033 375.296 116.641 375.808C117.259 376.309 117.59 376.997 117.633 377.872H115.809C115.777 377.477 115.617 377.163 115.329 376.928C115.041 376.693 114.651 376.576 114.161 376.576C113.681 376.576 113.313 376.667 113.057 376.848C112.801 377.029 112.673 377.269 112.673 377.568C112.673 377.803 112.758 378 112.929 378.16C113.099 378.32 113.307 378.448 113.553 378.544C113.798 378.629 114.161 378.741 114.641 378.88C115.281 379.051 115.803 379.227 116.209 379.408C116.625 379.579 116.982 379.835 117.281 380.176C117.579 380.517 117.734 380.971 117.745 381.536C117.745 382.037 117.606 382.485 117.329 382.88C117.051 383.275 116.657 383.584 116.145 383.808C115.643 384.032 115.051 384.144 114.369 384.144ZM131.556 375.184L128.82 384H126.9L125.124 377.488L123.348 384H121.428L118.676 375.184H120.532L122.372 382.272L124.244 375.184H126.148L127.94 382.24L129.764 375.184H131.556ZM132.311 379.552C132.311 378.667 132.492 377.883 132.855 377.2C133.228 376.517 133.729 375.989 134.359 375.616C134.999 375.232 135.703 375.04 136.471 375.04C137.164 375.04 137.767 375.179 138.279 375.456C138.801 375.723 139.217 376.059 139.527 376.464V375.184H141.367V384H139.527V382.688C139.217 383.104 138.796 383.451 138.263 383.728C137.729 384.005 137.121 384.144 136.439 384.144C135.681 384.144 134.988 383.952 134.359 383.568C133.729 383.173 133.228 382.629 132.855 381.936C132.492 381.232 132.311 380.437 132.311 379.552ZM139.527 379.584C139.527 378.976 139.399 378.448 139.143 378C138.897 377.552 138.572 377.211 138.167 376.976C137.761 376.741 137.324 376.624 136.855 376.624C136.385 376.624 135.948 376.741 135.543 376.976C135.137 377.2 134.807 377.536 134.551 377.984C134.305 378.421 134.183 378.944 134.183 379.552C134.183 380.16 134.305 380.693 134.551 381.152C134.807 381.611 135.137 381.963 135.543 382.208C135.959 382.443 136.396 382.56 136.855 382.56C137.324 382.56 137.761 382.443 138.167 382.208C138.572 381.973 138.897 381.632 139.143 381.184C139.399 380.725 139.527 380.192 139.527 379.584ZM145.587 376.48C145.896 376.075 146.317 375.733 146.851 375.456C147.384 375.179 147.987 375.04 148.659 375.04C149.427 375.04 150.125 375.232 150.755 375.616C151.395 375.989 151.896 376.517 152.259 377.2C152.621 377.883 152.803 378.667 152.803 379.552C152.803 380.437 152.621 381.232 152.259 381.936C151.896 382.629 151.395 383.173 150.755 383.568C150.125 383.952 149.427 384.144 148.659 384.144C147.987 384.144 147.389 384.011 146.867 383.744C146.344 383.467 145.917 383.125 145.587 382.72V388.192H143.763V375.184H145.587V376.48ZM150.947 379.552C150.947 378.944 150.819 378.421 150.562 377.984C150.317 377.536 149.987 377.2 149.571 376.976C149.165 376.741 148.728 376.624 148.259 376.624C147.8 376.624 147.363 376.741 146.947 376.976C146.541 377.211 146.211 377.552 145.955 378C145.709 378.448 145.587 378.976 145.587 379.584C145.587 380.192 145.709 380.725 145.955 381.184C146.211 381.632 146.541 381.973 146.947 382.208C147.363 382.443 147.8 382.56 148.259 382.56C148.728 382.56 149.165 382.443 149.571 382.208C149.987 381.963 150.317 381.611 150.562 381.152C150.819 380.693 150.947 380.16 150.947 379.552Z" fill="white"/>
<path d="M85.092 399.07C84.84 398.585 84.49 398.221 84.042 397.978C83.594 397.726 83.076 397.6 82.488 397.6C81.844 397.6 81.27 397.745 80.766 398.034C80.262 398.323 79.8653 398.734 79.576 399.266C79.296 399.798 79.156 400.414 79.156 401.114C79.156 401.814 79.296 402.435 79.576 402.976C79.8653 403.508 80.262 403.919 80.766 404.208C81.27 404.497 81.844 404.642 82.488 404.642C83.356 404.642 84.0607 404.399 84.602 403.914C85.1433 403.429 85.4747 402.771 85.596 401.94H81.942V400.666H87.304V401.912C87.2013 402.668 86.9307 403.363 86.492 403.998C86.0627 404.633 85.498 405.141 84.798 405.524C84.1073 405.897 83.3373 406.084 82.488 406.084C81.5733 406.084 80.738 405.874 79.982 405.454C79.226 405.025 78.624 404.432 78.176 403.676C77.7373 402.92 77.518 402.066 77.518 401.114C77.518 400.162 77.7373 399.308 78.176 398.552C78.624 397.796 79.226 397.208 79.982 396.788C80.7473 396.359 81.5827 396.144 82.488 396.144C83.524 396.144 84.4433 396.401 85.246 396.914C86.058 397.418 86.646 398.137 87.01 399.07H85.092ZM96.8721 406H95.2761L90.4741 398.734V406H88.8781V396.256H90.4741L95.2761 403.508V396.256H96.8721V406ZM103.406 406.098C102.501 406.098 101.665 405.888 100.9 405.468C100.144 405.039 99.542 404.446 99.094 403.69C98.6553 402.925 98.436 402.066 98.436 401.114C98.436 400.162 98.6553 399.308 99.094 398.552C99.542 397.796 100.144 397.208 100.9 396.788C101.665 396.359 102.501 396.144 103.406 396.144C104.321 396.144 105.156 396.359 105.912 396.788C106.677 397.208 107.279 397.796 107.718 398.552C108.157 399.308 108.376 400.162 108.376 401.114C108.376 402.066 108.157 402.925 107.718 403.69C107.279 404.446 106.677 405.039 105.912 405.468C105.156 405.888 104.321 406.098 103.406 406.098ZM103.406 404.712C104.05 404.712 104.624 404.567 105.128 404.278C105.632 403.979 106.024 403.559 106.304 403.018C106.593 402.467 106.738 401.833 106.738 401.114C106.738 400.395 106.593 399.765 106.304 399.224C106.024 398.683 105.632 398.267 105.128 397.978C104.624 397.689 104.05 397.544 103.406 397.544C102.762 397.544 102.188 397.689 101.684 397.978C101.18 398.267 100.783 398.683 100.494 399.224C100.214 399.765 100.074 400.395 100.074 401.114C100.074 401.833 100.214 402.467 100.494 403.018C100.783 403.559 101.18 403.979 101.684 404.278C102.188 404.567 102.762 404.712 103.406 404.712ZM113.152 406.098C112.499 406.098 111.911 405.986 111.388 405.762C110.866 405.529 110.455 405.202 110.156 404.782C109.858 404.362 109.708 403.872 109.708 403.312H111.416C111.454 403.732 111.617 404.077 111.906 404.348C112.205 404.619 112.62 404.754 113.152 404.754C113.703 404.754 114.132 404.623 114.44 404.362C114.748 404.091 114.902 403.746 114.902 403.326C114.902 402.999 114.804 402.733 114.608 402.528C114.422 402.323 114.184 402.164 113.894 402.052C113.614 401.94 113.222 401.819 112.718 401.688C112.084 401.52 111.566 401.352 111.164 401.184C110.772 401.007 110.436 400.736 110.156 400.372C109.876 400.008 109.736 399.523 109.736 398.916C109.736 398.356 109.876 397.866 110.156 397.446C110.436 397.026 110.828 396.704 111.332 396.48C111.836 396.256 112.42 396.144 113.082 396.144C114.025 396.144 114.795 396.382 115.392 396.858C115.999 397.325 116.335 397.969 116.4 398.79H114.636C114.608 398.435 114.44 398.132 114.132 397.88C113.824 397.628 113.418 397.502 112.914 397.502C112.457 397.502 112.084 397.619 111.794 397.852C111.505 398.085 111.36 398.421 111.36 398.86C111.36 399.159 111.449 399.406 111.626 399.602C111.813 399.789 112.046 399.938 112.326 400.05C112.606 400.162 112.989 400.283 113.474 400.414C114.118 400.591 114.641 400.769 115.042 400.946C115.453 401.123 115.798 401.399 116.078 401.772C116.368 402.136 116.512 402.626 116.512 403.242C116.512 403.737 116.377 404.203 116.106 404.642C115.845 405.081 115.458 405.435 114.944 405.706C114.44 405.967 113.843 406.098 113.152 406.098ZM125.56 408.604C124.646 407.727 123.941 406.611 123.446 405.258C122.961 403.905 122.718 402.453 122.718 400.904C122.718 399.317 122.98 397.819 123.502 396.41C124.034 395.001 124.814 393.839 125.84 392.924H127.492V393.078C126.419 394.067 125.612 395.253 125.07 396.634C124.529 398.015 124.258 399.439 124.258 400.904C124.258 402.313 124.51 403.676 125.014 404.992C125.518 406.308 126.251 407.461 127.212 408.45V408.604H125.56ZM132.031 398.16C132.628 398.16 133.156 398.281 133.613 398.524C134.08 398.757 134.444 399.051 134.705 399.406V398.286H136.315V406.126C136.315 406.835 136.166 407.465 135.867 408.016C135.568 408.576 135.134 409.015 134.565 409.332C134.005 409.649 133.333 409.808 132.549 409.808C131.504 409.808 130.636 409.561 129.945 409.066C129.254 408.581 128.862 407.918 128.769 407.078H130.351C130.472 407.479 130.729 407.801 131.121 408.044C131.522 408.296 131.998 408.422 132.549 408.422C133.193 408.422 133.711 408.226 134.103 407.834C134.504 407.442 134.705 406.873 134.705 406.126V404.838C134.434 405.202 134.066 405.51 133.599 405.762C133.142 406.005 132.619 406.126 132.031 406.126C131.359 406.126 130.743 405.958 130.183 405.622C129.632 405.277 129.194 404.801 128.867 404.194C128.55 403.578 128.391 402.883 128.391 402.108C128.391 401.333 128.55 400.647 128.867 400.05C129.194 399.453 129.632 398.991 130.183 398.664C130.743 398.328 131.359 398.16 132.031 398.16ZM134.705 402.136C134.705 401.604 134.593 401.142 134.369 400.75C134.154 400.358 133.87 400.059 133.515 399.854C133.16 399.649 132.778 399.546 132.367 399.546C131.956 399.546 131.574 399.649 131.219 399.854C130.864 400.05 130.575 400.344 130.351 400.736C130.136 401.119 130.029 401.576 130.029 402.108C130.029 402.64 130.136 403.107 130.351 403.508C130.575 403.909 130.864 404.217 131.219 404.432C131.583 404.637 131.966 404.74 132.367 404.74C132.778 404.74 133.16 404.637 133.515 404.432C133.87 404.227 134.154 403.928 134.369 403.536C134.593 403.135 134.705 402.668 134.705 402.136ZM137.991 397.25V395.794H140.903V406H139.293V397.25H137.991ZM143.978 403.83C144.874 403.055 145.579 402.421 146.092 401.926C146.615 401.422 147.049 400.899 147.394 400.358C147.739 399.817 147.912 399.275 147.912 398.734C147.912 398.174 147.777 397.735 147.506 397.418C147.245 397.101 146.829 396.942 146.26 396.942C145.709 396.942 145.28 397.119 144.972 397.474C144.673 397.819 144.515 398.286 144.496 398.874H142.956C142.984 397.81 143.301 396.998 143.908 396.438C144.524 395.869 145.303 395.584 146.246 395.584C147.263 395.584 148.057 395.864 148.626 396.424C149.205 396.984 149.494 397.731 149.494 398.664C149.494 399.336 149.321 399.985 148.976 400.61C148.64 401.226 148.234 401.781 147.758 402.276C147.291 402.761 146.694 403.326 145.966 403.97L145.336 404.53H149.774V405.86H142.97V404.698L143.978 403.83ZM151.148 398.314C151.204 397.446 151.535 396.769 152.142 396.284C152.758 395.799 153.542 395.556 154.494 395.556C155.147 395.556 155.712 395.673 156.188 395.906C156.664 396.139 157.023 396.457 157.266 396.858C157.509 397.259 157.63 397.712 157.63 398.216C157.63 398.795 157.476 399.289 157.168 399.7C156.86 400.111 156.491 400.386 156.062 400.526V400.582C156.613 400.75 157.042 401.058 157.35 401.506C157.658 401.945 157.812 402.509 157.812 403.2C157.812 403.751 157.686 404.241 157.434 404.67C157.182 405.099 156.809 405.44 156.314 405.692C155.819 405.935 155.227 406.056 154.536 406.056C153.528 406.056 152.697 405.799 152.044 405.286C151.4 404.763 151.055 404.017 151.008 403.046H152.548C152.585 403.541 152.777 403.947 153.122 404.264C153.467 404.572 153.934 404.726 154.522 404.726C155.091 404.726 155.53 404.572 155.838 404.264C156.146 403.947 156.3 403.541 156.3 403.046C156.3 402.393 156.09 401.931 155.67 401.66C155.259 401.38 154.625 401.24 153.766 401.24H153.402V399.924H153.78C154.536 399.915 155.11 399.789 155.502 399.546C155.903 399.303 156.104 398.921 156.104 398.398C156.104 397.95 155.959 397.595 155.67 397.334C155.381 397.063 154.97 396.928 154.438 396.928C153.915 396.928 153.509 397.063 153.22 397.334C152.931 397.595 152.758 397.922 152.702 398.314H151.148ZM160.342 406.098C160.053 406.098 159.81 406 159.614 405.804C159.418 405.608 159.32 405.365 159.32 405.076C159.32 404.787 159.418 404.544 159.614 404.348C159.81 404.152 160.053 404.054 160.342 404.054C160.622 404.054 160.86 404.152 161.056 404.348C161.252 404.544 161.35 404.787 161.35 405.076C161.35 405.365 161.252 405.608 161.056 405.804C160.86 406 160.622 406.098 160.342 406.098ZM163.719 406.098C163.43 406.098 163.187 406 162.991 405.804C162.795 405.608 162.697 405.365 162.697 405.076C162.697 404.787 162.795 404.544 162.991 404.348C163.187 404.152 163.43 404.054 163.719 404.054C163.999 404.054 164.237 404.152 164.433 404.348C164.629 404.544 164.727 404.787 164.727 405.076C164.727 405.365 164.629 405.608 164.433 405.804C164.237 406 163.999 406.098 163.719 406.098ZM167.096 406.098C166.807 406.098 166.564 406 166.368 405.804C166.172 405.608 166.074 405.365 166.074 405.076C166.074 404.787 166.172 404.544 166.368 404.348C166.564 404.152 166.807 404.054 167.096 404.054C167.376 404.054 167.614 404.152 167.81 404.348C168.006 404.544 168.104 404.787 168.104 405.076C168.104 405.365 168.006 405.608 167.81 405.804C167.614 406 167.376 406.098 167.096 406.098ZM173.721 398.16C174.328 398.16 174.869 398.286 175.345 398.538C175.831 398.79 176.209 399.163 176.479 399.658C176.75 400.153 176.885 400.75 176.885 401.45V406H175.303V401.688C175.303 400.997 175.131 400.47 174.785 400.106C174.44 399.733 173.969 399.546 173.371 399.546C172.774 399.546 172.298 399.733 171.943 400.106C171.598 400.47 171.425 400.997 171.425 401.688V406H169.829V398.286H171.425V399.168C171.687 398.851 172.018 398.603 172.419 398.426C172.83 398.249 173.264 398.16 173.721 398.16ZM178.683 398.314C178.739 397.446 179.07 396.769 179.677 396.284C180.293 395.799 181.077 395.556 182.029 395.556C182.682 395.556 183.247 395.673 183.723 395.906C184.199 396.139 184.558 396.457 184.801 396.858C185.044 397.259 185.165 397.712 185.165 398.216C185.165 398.795 185.011 399.289 184.703 399.7C184.395 400.111 184.026 400.386 183.597 400.526V400.582C184.148 400.75 184.577 401.058 184.885 401.506C185.193 401.945 185.347 402.509 185.347 403.2C185.347 403.751 185.221 404.241 184.969 404.67C184.717 405.099 184.344 405.44 183.849 405.692C183.354 405.935 182.762 406.056 182.071 406.056C181.063 406.056 180.232 405.799 179.579 405.286C178.935 404.763 178.59 404.017 178.543 403.046H180.083C180.12 403.541 180.312 403.947 180.657 404.264C181.002 404.572 181.469 404.726 182.057 404.726C182.626 404.726 183.065 404.572 183.373 404.264C183.681 403.947 183.835 403.541 183.835 403.046C183.835 402.393 183.625 401.931 183.205 401.66C182.794 401.38 182.16 401.24 181.301 401.24H180.937V399.924H181.315C182.071 399.915 182.645 399.789 183.037 399.546C183.438 399.303 183.639 398.921 183.639 398.398C183.639 397.95 183.494 397.595 183.205 397.334C182.916 397.063 182.505 396.928 181.973 396.928C181.45 396.928 181.044 397.063 180.755 397.334C180.466 397.595 180.293 397.922 180.237 398.314H178.683ZM186.828 403.872V402.668L191.532 395.92H193.464V402.486H194.766V403.872H193.464V406H191.896V403.872H186.828ZM191.966 397.544L188.662 402.486H191.966V397.544ZM195.906 408.604V408.45C196.867 407.461 197.6 406.308 198.104 404.992C198.608 403.676 198.86 402.313 198.86 400.904C198.86 399.439 198.589 398.015 198.048 396.634C197.507 395.253 196.699 394.067 195.626 393.078V392.924H197.278C198.305 393.839 199.079 395.001 199.602 396.41C200.134 397.819 200.4 399.317 200.4 400.904C200.4 402.453 200.153 403.905 199.658 405.258C199.173 406.611 198.473 407.727 197.558 408.604H195.906Z" fill="#545C7B"/>
<rect x="20" y="289" width="320" height="60" rx="8" fill="#303254"/>
<path d="M65.5 319C65.5 327.591 58.5906 334.5 50 334.5C41.4094 334.5 34.5 327.591 34.5 319C34.5 310.409 41.4094 303.5 50 303.5C58.5906 303.5 65.5 310.409 65.5 319Z" fill="#2775CA" stroke="white"/>
<path d="M54.4001 321.533C54.4001 319.2 53.0001 318.4 50.2001 318.066C48.2001 317.8 47.8001 317.266 47.8001 316.333C47.8001 315.399 48.4668 314.8 49.8001 314.8C51.0001 314.8 51.6668 315.2 52.0001 316.2C52.0668 316.4 52.2668 316.533 52.4668 316.533H53.5334C53.8001 316.533 54.0001 316.333 54.0001 316.066V316C53.7334 314.533 52.5334 313.4 51.0001 313.266V311.666C51.0001 311.4 50.8001 311.2 50.4668 311.133H49.4668C49.2001 311.133 49.0001 311.333 48.9334 311.666V313.2C46.9334 313.466 45.6668 314.8 45.6668 316.466C45.6668 318.666 47.0001 319.533 49.8001 319.866C51.6668 320.2 52.2668 320.6 52.2668 321.666C52.2668 322.733 51.3334 323.466 50.0668 323.466C48.3334 323.466 47.7334 322.733 47.5334 321.733C47.4668 321.466 47.2668 321.333 47.0668 321.333H45.9334C45.6668 321.333 45.4668 321.533 45.4668 321.8V321.866C45.7334 323.533 46.8001 324.733 49.0001 325.066V326.666C49.0001 326.933 49.2001 327.133 49.5334 327.2H50.5334C50.8001 327.2 51.0001 327 51.0668 326.666V325.066C53.0668 324.733 54.4001 323.333 54.4001 321.533Z" fill="white"/>
<path d="M46.6003 328.534C41.4003 326.667 38.7336 320.867 40.667 315.734C41.667 312.934 43.867 310.8 46.6003 309.8C46.867 309.667 47.0003 309.467 47.0003 309.134V308.2C47.0003 307.934 46.867 307.734 46.6003 307.667C46.5336 307.667 46.4003 307.667 46.3336 307.734C40.0003 309.734 36.5336 316.467 38.5336 322.8C39.7336 326.534 42.6003 329.4 46.3336 330.6C46.6003 330.734 46.867 330.6 46.9336 330.334C47.0003 330.267 47.0003 330.2 47.0003 330.067V329.134C47.0003 328.934 46.8003 328.667 46.6003 328.534ZM53.667 307.734C53.4003 307.6 53.1336 307.734 53.067 308C53.0003 308.067 53.0003 308.134 53.0003 308.267V309.2C53.0003 309.467 53.2003 309.734 53.4003 309.867C58.6003 311.734 61.267 317.534 59.3336 322.667C58.3336 325.467 56.1336 327.6 53.4003 328.6C53.1336 328.734 53.0003 328.934 53.0003 329.267V330.2C53.0003 330.467 53.1336 330.667 53.4003 330.734C53.467 330.734 53.6003 330.734 53.667 330.667C60.0003 328.667 63.467 321.934 61.467 315.6C60.267 311.8 57.3336 308.934 53.667 307.734Z" fill="white"/>
<rect x="291" y="309" width="35" height="19" rx="9.5" fill="#C1C4CD"/>
<circle cx="300.5" cy="318.5" r="7.5" fill="white"/>
<path d="M216.667 335.278H209.333C208.997 335.278 208.722 335.003 208.722 334.667V327.333C208.722 326.997 208.997 326.722 209.333 326.722H212.389C212.725 326.722 213 326.447 213 326.111C213 325.775 212.725 325.5 212.389 325.5H208.722C208.044 325.5 207.5 326.05 207.5 326.722V335.278C207.5 335.95 208.05 336.5 208.722 336.5H217.278C217.95 336.5 218.5 335.95 218.5 335.278V331.611C218.5 331.275 218.225 331 217.889 331C217.553 331 217.278 331.275 217.278 331.611V334.667C217.278 335.003 217.003 335.278 216.667 335.278ZM214.222 326.111C214.222 326.447 214.497 326.722 214.833 326.722H216.416L211.766 331.373C211.527 331.611 211.527 331.996 211.766 332.234C212.004 332.473 212.389 332.473 212.627 332.234L217.278 327.584V329.167C217.278 329.503 217.553 329.778 217.889 329.778C218.225 329.778 218.5 329.503 218.5 329.167V326.111C218.5 325.775 218.225 325.5 217.889 325.5H214.833C214.497 325.5 214.222 325.775 214.222 326.111Z" fill="#545C7B"/>
<path d="M80.008 302.88V309.968C80.008 310.811 80.2267 311.445 80.664 311.872C81.112 312.299 81.7307 312.512 82.52 312.512C83.32 312.512 83.9387 312.299 84.376 311.872C84.824 311.445 85.048 310.811 85.048 309.968V302.88H86.872V309.936C86.872 310.843 86.6747 311.611 86.28 312.24C85.8853 312.869 85.3573 313.339 84.696 313.648C84.0347 313.957 83.304 314.112 82.504 314.112C81.704 314.112 80.9733 313.957 80.312 313.648C79.6613 313.339 79.144 312.869 78.76 312.24C78.376 311.611 78.184 310.843 78.184 309.936V302.88H80.008ZM92.9109 314.112C92.1642 314.112 91.4922 313.984 90.8949 313.728C90.2975 313.461 89.8282 313.088 89.4869 312.608C89.1455 312.128 88.9749 311.568 88.9749 310.928H90.9269C90.9695 311.408 91.1562 311.803 91.4869 312.112C91.8282 312.421 92.3029 312.576 92.9109 312.576C93.5402 312.576 94.0309 312.427 94.3829 312.128C94.7349 311.819 94.9109 311.424 94.9109 310.944C94.9109 310.571 94.7989 310.267 94.5749 310.032C94.3615 309.797 94.0895 309.616 93.7589 309.488C93.4389 309.36 92.9909 309.221 92.4149 309.072C91.6895 308.88 91.0975 308.688 90.6389 308.496C90.1909 308.293 89.8069 307.984 89.4869 307.568C89.1669 307.152 89.0069 306.597 89.0069 305.904C89.0069 305.264 89.1669 304.704 89.4869 304.224C89.8069 303.744 90.2549 303.376 90.8309 303.12C91.4069 302.864 92.0735 302.736 92.8309 302.736C93.9082 302.736 94.7882 303.008 95.4709 303.552C96.1642 304.085 96.5482 304.821 96.6229 305.76H94.6069C94.5749 305.355 94.3829 305.008 94.0309 304.72C93.6789 304.432 93.2149 304.288 92.6389 304.288C92.1162 304.288 91.6895 304.421 91.3589 304.688C91.0282 304.955 90.8629 305.339 90.8629 305.84C90.8629 306.181 90.9642 306.464 91.1669 306.688C91.3802 306.901 91.6469 307.072 91.9669 307.2C92.2869 307.328 92.7242 307.467 93.2789 307.616C94.0149 307.819 94.6122 308.021 95.0709 308.224C95.5402 308.427 95.9349 308.741 96.2549 309.168C96.5855 309.584 96.7509 310.144 96.7509 310.848C96.7509 311.413 96.5962 311.947 96.2869 312.448C95.9882 312.949 95.5455 313.355 94.9589 313.664C94.3829 313.963 93.7002 314.112 92.9109 314.112ZM102.535 302.88C103.719 302.88 104.754 303.109 105.639 303.568C106.535 304.016 107.223 304.667 107.703 305.52C108.194 306.363 108.439 307.349 108.439 308.48C108.439 309.611 108.194 310.592 107.703 311.424C107.223 312.256 106.535 312.896 105.639 313.344C104.754 313.781 103.719 314 102.535 314H98.9031V302.88H102.535ZM102.535 312.512C103.836 312.512 104.834 312.16 105.527 311.456C106.22 310.752 106.567 309.76 106.567 308.48C106.567 307.189 106.22 306.181 105.527 305.456C104.834 304.731 103.836 304.368 102.535 304.368H100.727V312.512H102.535ZM113.795 308.416C113.795 307.328 114.046 306.352 114.547 305.488C115.059 304.624 115.747 303.952 116.611 303.472C117.486 302.981 118.44 302.736 119.475 302.736C120.659 302.736 121.71 303.029 122.627 303.616C123.555 304.192 124.227 305.013 124.643 306.08H122.451C122.163 305.493 121.763 305.056 121.251 304.768C120.739 304.48 120.147 304.336 119.475 304.336C118.739 304.336 118.083 304.501 117.507 304.832C116.931 305.163 116.478 305.637 116.147 306.256C115.827 306.875 115.667 307.595 115.667 308.416C115.667 309.237 115.827 309.957 116.147 310.576C116.478 311.195 116.931 311.675 117.507 312.016C118.083 312.347 118.739 312.512 119.475 312.512C120.147 312.512 120.739 312.368 121.251 312.08C121.763 311.792 122.163 311.355 122.451 310.768H124.643C124.227 311.835 123.555 312.656 122.627 313.232C121.71 313.808 120.659 314.096 119.475 314.096C118.43 314.096 117.475 313.856 116.611 313.376C115.747 312.885 115.059 312.208 114.547 311.344C114.046 310.48 113.795 309.504 113.795 308.416ZM130.602 314.144C129.77 314.144 129.018 313.957 128.346 313.584C127.674 313.2 127.146 312.667 126.762 311.984C126.378 311.291 126.186 310.491 126.186 309.584C126.186 308.688 126.383 307.893 126.778 307.2C127.173 306.507 127.711 305.973 128.394 305.6C129.077 305.227 129.839 305.04 130.682 305.04C131.525 305.04 132.287 305.227 132.97 305.6C133.653 305.973 134.191 306.507 134.586 307.2C134.981 307.893 135.178 308.688 135.178 309.584C135.178 310.48 134.975 311.275 134.57 311.968C134.165 312.661 133.61 313.2 132.906 313.584C132.213 313.957 131.445 314.144 130.602 314.144ZM130.602 312.56C131.071 312.56 131.509 312.448 131.914 312.224C132.33 312 132.666 311.664 132.922 311.216C133.178 310.768 133.306 310.224 133.306 309.584C133.306 308.944 133.183 308.405 132.938 307.968C132.693 307.52 132.367 307.184 131.962 306.96C131.557 306.736 131.119 306.624 130.65 306.624C130.181 306.624 129.743 306.736 129.338 306.96C128.943 307.184 128.629 307.52 128.394 307.968C128.159 308.405 128.042 308.944 128.042 309.584C128.042 310.533 128.282 311.269 128.762 311.792C129.253 312.304 129.866 312.56 130.602 312.56ZM137.909 304.016C137.579 304.016 137.301 303.904 137.077 303.68C136.853 303.456 136.741 303.179 136.741 302.848C136.741 302.517 136.853 302.24 137.077 302.016C137.301 301.792 137.579 301.68 137.909 301.68C138.229 301.68 138.501 301.792 138.725 302.016C138.949 302.24 139.061 302.517 139.061 302.848C139.061 303.179 138.949 303.456 138.725 303.68C138.501 303.904 138.229 304.016 137.909 304.016ZM138.805 305.184V314H136.981V305.184H138.805ZM145.648 305.04C146.341 305.04 146.96 305.184 147.504 305.472C148.059 305.76 148.491 306.187 148.8 306.752C149.109 307.317 149.264 308 149.264 308.8V314H147.456V309.072C147.456 308.283 147.259 307.68 146.864 307.264C146.469 306.837 145.931 306.624 145.248 306.624C144.565 306.624 144.021 306.837 143.616 307.264C143.221 307.68 143.024 308.283 143.024 309.072V314H141.2V305.184H143.024V306.192C143.323 305.829 143.701 305.547 144.16 305.344C144.629 305.141 145.125 305.04 145.648 305.04Z" fill="white"/>
<path d="M79.632 326.27V332.472C79.632 333.209 79.8233 333.765 80.206 334.138C80.598 334.511 81.1393 334.698 81.83 334.698C82.53 334.698 83.0713 334.511 83.454 334.138C83.846 333.765 84.042 333.209 84.042 332.472V326.27H85.638V332.444C85.638 333.237 85.4653 333.909 85.12 334.46C84.7747 335.011 84.3127 335.421 83.734 335.692C83.1553 335.963 82.516 336.098 81.816 336.098C81.116 336.098 80.4767 335.963 79.898 335.692C79.3287 335.421 78.876 335.011 78.54 334.46C78.204 333.909 78.036 333.237 78.036 332.444V326.27H79.632ZM90.922 336.098C90.2687 336.098 89.6807 335.986 89.158 335.762C88.6353 335.529 88.2247 335.202 87.926 334.782C87.6273 334.362 87.478 333.872 87.478 333.312H89.186C89.2233 333.732 89.3867 334.077 89.676 334.348C89.9747 334.619 90.39 334.754 90.922 334.754C91.4727 334.754 91.902 334.623 92.21 334.362C92.518 334.091 92.672 333.746 92.672 333.326C92.672 332.999 92.574 332.733 92.378 332.528C92.1913 332.323 91.9533 332.164 91.664 332.052C91.384 331.94 90.992 331.819 90.488 331.688C89.8533 331.52 89.3353 331.352 88.934 331.184C88.542 331.007 88.206 330.736 87.926 330.372C87.646 330.008 87.506 329.523 87.506 328.916C87.506 328.356 87.646 327.866 87.926 327.446C88.206 327.026 88.598 326.704 89.102 326.48C89.606 326.256 90.1893 326.144 90.852 326.144C91.7947 326.144 92.5647 326.382 93.162 326.858C93.7687 327.325 94.1047 327.969 94.17 328.79H92.406C92.378 328.435 92.21 328.132 91.902 327.88C91.594 327.628 91.188 327.502 90.684 327.502C90.2267 327.502 89.8533 327.619 89.564 327.852C89.2747 328.085 89.13 328.421 89.13 328.86C89.13 329.159 89.2187 329.406 89.396 329.602C89.5827 329.789 89.816 329.938 90.096 330.05C90.376 330.162 90.7587 330.283 91.244 330.414C91.888 330.591 92.4107 330.769 92.812 330.946C93.2227 331.123 93.568 331.399 93.848 331.772C94.1373 332.136 94.282 332.626 94.282 333.242C94.282 333.737 94.1467 334.203 93.876 334.642C93.6147 335.081 93.2273 335.435 92.714 335.706C92.21 335.967 91.6127 336.098 90.922 336.098ZM99.3432 326.27C100.379 326.27 101.285 326.471 102.059 326.872C102.843 327.264 103.445 327.833 103.865 328.58C104.295 329.317 104.509 330.181 104.509 331.17C104.509 332.159 104.295 333.018 103.865 333.746C103.445 334.474 102.843 335.034 102.059 335.426C101.285 335.809 100.379 336 99.3432 336H96.1652V326.27H99.3432ZM99.3432 334.698C100.482 334.698 101.355 334.39 101.961 333.774C102.568 333.158 102.871 332.29 102.871 331.17C102.871 330.041 102.568 329.159 101.961 328.524C101.355 327.889 100.482 327.572 99.3432 327.572H97.7612V334.698H99.3432ZM105.559 331.114C105.559 330.162 105.778 329.308 106.217 328.552C106.665 327.796 107.267 327.208 108.023 326.788C108.788 326.359 109.624 326.144 110.529 326.144C111.565 326.144 112.484 326.401 113.287 326.914C114.099 327.418 114.687 328.137 115.051 329.07H113.133C112.881 328.557 112.531 328.174 112.083 327.922C111.635 327.67 111.117 327.544 110.529 327.544C109.885 327.544 109.311 327.689 108.807 327.978C108.303 328.267 107.906 328.683 107.617 329.224C107.337 329.765 107.197 330.395 107.197 331.114C107.197 331.833 107.337 332.463 107.617 333.004C107.906 333.545 108.303 333.965 108.807 334.264C109.311 334.553 109.885 334.698 110.529 334.698C111.117 334.698 111.635 334.572 112.083 334.32C112.531 334.068 112.881 333.685 113.133 333.172H115.051C114.687 334.105 114.099 334.824 113.287 335.328C112.484 335.832 111.565 336.084 110.529 336.084C109.614 336.084 108.779 335.874 108.023 335.454C107.267 335.025 106.665 334.432 106.217 333.676C105.778 332.92 105.559 332.066 105.559 331.114ZM124.084 338.604C123.169 337.727 122.465 336.611 121.97 335.258C121.485 333.905 121.242 332.453 121.242 330.904C121.242 329.317 121.503 327.819 122.026 326.41C122.558 325.001 123.337 323.839 124.364 322.924H126.016V323.078C124.943 324.067 124.135 325.253 123.594 326.634C123.053 328.015 122.782 329.439 122.782 330.904C122.782 332.313 123.034 333.676 123.538 334.992C124.042 336.308 124.775 337.461 125.736 338.45V338.604H124.084ZM130.554 328.16C131.152 328.16 131.679 328.281 132.136 328.524C132.603 328.757 132.967 329.051 133.228 329.406V328.286H134.838V336.126C134.838 336.835 134.689 337.465 134.39 338.016C134.092 338.576 133.658 339.015 133.088 339.332C132.528 339.649 131.856 339.808 131.072 339.808C130.027 339.808 129.159 339.561 128.468 339.066C127.778 338.581 127.386 337.918 127.292 337.078H128.874C128.996 337.479 129.252 337.801 129.644 338.044C130.046 338.296 130.522 338.422 131.072 338.422C131.716 338.422 132.234 338.226 132.626 337.834C133.028 337.442 133.228 336.873 133.228 336.126V334.838C132.958 335.202 132.589 335.51 132.122 335.762C131.665 336.005 131.142 336.126 130.554 336.126C129.882 336.126 129.266 335.958 128.706 335.622C128.156 335.277 127.717 334.801 127.39 334.194C127.073 333.578 126.914 332.883 126.914 332.108C126.914 331.333 127.073 330.647 127.39 330.05C127.717 329.453 128.156 328.991 128.706 328.664C129.266 328.328 129.882 328.16 130.554 328.16ZM133.228 332.136C133.228 331.604 133.116 331.142 132.892 330.75C132.678 330.358 132.393 330.059 132.038 329.854C131.684 329.649 131.301 329.546 130.89 329.546C130.48 329.546 130.097 329.649 129.742 329.854C129.388 330.05 129.098 330.344 128.874 330.736C128.66 331.119 128.552 331.576 128.552 332.108C128.552 332.64 128.66 333.107 128.874 333.508C129.098 333.909 129.388 334.217 129.742 334.432C130.106 334.637 130.489 334.74 130.89 334.74C131.301 334.74 131.684 334.637 132.038 334.432C132.393 334.227 132.678 333.928 132.892 333.536C133.116 333.135 133.228 332.668 133.228 332.136ZM138.531 329.434C138.801 329.061 139.17 328.757 139.637 328.524C140.113 328.281 140.64 328.16 141.219 328.16C141.9 328.16 142.516 328.323 143.067 328.65C143.617 328.977 144.051 329.443 144.369 330.05C144.686 330.647 144.845 331.333 144.845 332.108C144.845 332.883 144.686 333.578 144.369 334.194C144.051 334.801 143.613 335.277 143.053 335.622C142.502 335.958 141.891 336.126 141.219 336.126C140.621 336.126 140.089 336.009 139.623 335.776C139.165 335.543 138.801 335.244 138.531 334.88V336H136.935V325.64H138.531V329.434ZM143.221 332.108C143.221 331.576 143.109 331.119 142.885 330.736C142.67 330.344 142.381 330.05 142.017 329.854C141.662 329.649 141.279 329.546 140.869 329.546C140.467 329.546 140.085 329.649 139.721 329.854C139.366 330.059 139.077 330.358 138.853 330.75C138.638 331.142 138.531 331.604 138.531 332.136C138.531 332.668 138.638 333.135 138.853 333.536C139.077 333.928 139.366 334.227 139.721 334.432C140.085 334.637 140.467 334.74 140.869 334.74C141.279 334.74 141.662 334.637 142.017 334.432C142.381 334.217 142.67 333.909 142.885 333.508C143.109 333.107 143.221 332.64 143.221 332.108ZM145.891 332.108C145.891 331.333 146.05 330.647 146.367 330.05C146.694 329.453 147.132 328.991 147.683 328.664C148.243 328.328 148.859 328.16 149.531 328.16C150.138 328.16 150.665 328.281 151.113 328.524C151.57 328.757 151.934 329.051 152.205 329.406V328.286H153.815V336H152.205V334.852C151.934 335.216 151.566 335.519 151.099 335.762C150.632 336.005 150.1 336.126 149.503 336.126C148.84 336.126 148.234 335.958 147.683 335.622C147.132 335.277 146.694 334.801 146.367 334.194C146.05 333.578 145.891 332.883 145.891 332.108ZM152.205 332.136C152.205 331.604 152.093 331.142 151.869 330.75C151.654 330.358 151.37 330.059 151.015 329.854C150.66 329.649 150.278 329.546 149.867 329.546C149.456 329.546 149.074 329.649 148.719 329.854C148.364 330.05 148.075 330.344 147.851 330.736C147.636 331.119 147.529 331.576 147.529 332.108C147.529 332.64 147.636 333.107 147.851 333.508C148.075 333.909 148.364 334.217 148.719 334.432C149.083 334.637 149.466 334.74 149.867 334.74C150.278 334.74 150.66 334.637 151.015 334.432C151.37 334.227 151.654 333.928 151.869 333.536C152.093 333.135 152.205 332.668 152.205 332.136ZM156.583 333.83C157.479 333.055 158.184 332.421 158.697 331.926C159.22 331.422 159.654 330.899 159.999 330.358C160.345 329.817 160.517 329.275 160.517 328.734C160.517 328.174 160.382 327.735 160.111 327.418C159.85 327.101 159.435 326.942 158.865 326.942C158.315 326.942 157.885 327.119 157.577 327.474C157.279 327.819 157.12 328.286 157.101 328.874H155.561C155.589 327.81 155.907 326.998 156.513 326.438C157.129 325.869 157.909 325.584 158.851 325.584C159.869 325.584 160.662 325.864 161.231 326.424C161.81 326.984 162.099 327.731 162.099 328.664C162.099 329.336 161.927 329.985 161.581 330.61C161.245 331.226 160.839 331.781 160.363 332.276C159.897 332.761 159.299 333.326 158.571 333.97L157.941 334.53H162.379V335.86H155.575V334.698L156.583 333.83ZM164.635 336.098C164.346 336.098 164.103 336 163.907 335.804C163.711 335.608 163.613 335.365 163.613 335.076C163.613 334.787 163.711 334.544 163.907 334.348C164.103 334.152 164.346 334.054 164.635 334.054C164.915 334.054 165.153 334.152 165.349 334.348C165.545 334.544 165.643 334.787 165.643 335.076C165.643 335.365 165.545 335.608 165.349 335.804C165.153 336 164.915 336.098 164.635 336.098ZM168.012 336.098C167.723 336.098 167.48 336 167.284 335.804C167.088 335.608 166.99 335.365 166.99 335.076C166.99 334.787 167.088 334.544 167.284 334.348C167.48 334.152 167.723 334.054 168.012 334.054C168.292 334.054 168.53 334.152 168.726 334.348C168.922 334.544 169.02 334.787 169.02 335.076C169.02 335.365 168.922 335.608 168.726 335.804C168.53 336 168.292 336.098 168.012 336.098ZM171.389 336.098C171.1 336.098 170.857 336 170.661 335.804C170.465 335.608 170.367 335.365 170.367 335.076C170.367 334.787 170.465 334.544 170.661 334.348C170.857 334.152 171.1 334.054 171.389 334.054C171.669 334.054 171.907 334.152 172.103 334.348C172.299 334.544 172.397 334.787 172.397 335.076C172.397 335.365 172.299 335.608 172.103 335.804C171.907 336 171.669 336.098 171.389 336.098ZM173.702 327.25V325.794H176.614V336H175.004V327.25H173.702ZM179.689 333.83C180.585 333.055 181.289 332.421 181.803 331.926C182.325 331.422 182.759 330.899 183.105 330.358C183.45 329.817 183.623 329.275 183.623 328.734C183.623 328.174 183.487 327.735 183.217 327.418C182.955 327.101 182.54 326.942 181.971 326.942C181.42 326.942 180.991 327.119 180.683 327.474C180.384 327.819 180.225 328.286 180.207 328.874H178.667C178.695 327.81 179.012 326.998 179.619 326.438C180.235 325.869 181.014 325.584 181.957 325.584C182.974 325.584 183.767 325.864 184.337 326.424C184.915 326.984 185.205 327.731 185.205 328.664C185.205 329.336 185.032 329.985 184.687 330.61C184.351 331.226 183.945 331.781 183.469 332.276C183.002 332.761 182.405 333.326 181.677 333.97L181.047 334.53H185.485V335.86H178.681V334.698L179.689 333.83ZM190.989 328.16C191.596 328.16 192.137 328.286 192.613 328.538C193.098 328.79 193.476 329.163 193.747 329.658C194.018 330.153 194.153 330.75 194.153 331.45V336H192.571V331.688C192.571 330.997 192.398 330.47 192.053 330.106C191.708 329.733 191.236 329.546 190.639 329.546C190.042 329.546 189.566 329.733 189.211 330.106C188.866 330.47 188.693 330.997 188.693 331.688V336H187.097V328.286H188.693V329.168C188.954 328.851 189.286 328.603 189.687 328.426C190.098 328.249 190.532 328.16 190.989 328.16ZM195.797 338.604V338.45C196.758 337.461 197.491 336.308 197.995 334.992C198.499 333.676 198.751 332.313 198.751 330.904C198.751 329.439 198.48 328.015 197.939 326.634C197.397 325.253 196.59 324.067 195.517 323.078V322.924H197.169C198.195 323.839 198.97 325.001 199.493 326.41C200.025 327.819 200.291 329.317 200.291 330.904C200.291 332.453 200.043 333.905 199.549 335.258C199.063 336.611 198.363 337.727 197.449 338.604H195.797Z" fill="#545C7B"/>
<rect y="448" width="360" height="92" fill="#1F1E43"/>
<line y1="448.5" x2="360" y2="448.5" stroke="#252349"/>
<path d="M20 477C20 472.582 23.5817 469 28 469H332C336.418 469 340 472.582 340 477V511C340 515.418 336.418 519 332 519H28C23.5817 519 20 515.418 20 511V477Z" fill="#303254"/>
<path d="M154.73 493.718C154.73 492.494 155.012 491.396 155.576 490.424C156.152 489.452 156.926 488.696 157.898 488.156C158.882 487.604 159.956 487.328 161.12 487.328C162.452 487.328 163.634 487.658 164.666 488.318C165.71 488.966 166.466 489.89 166.934 491.09H164.468C164.144 490.43 163.694 489.938 163.118 489.614C162.542 489.29 161.876 489.128 161.12 489.128C160.292 489.128 159.554 489.314 158.906 489.686C158.258 490.058 157.748 490.592 157.376 491.288C157.016 491.984 156.836 492.794 156.836 493.718C156.836 494.642 157.016 495.452 157.376 496.148C157.748 496.844 158.258 497.384 158.906 497.768C159.554 498.14 160.292 498.326 161.12 498.326C161.876 498.326 162.542 498.164 163.118 497.84C163.694 497.516 164.144 497.024 164.468 496.364H166.934C166.466 497.564 165.71 498.488 164.666 499.136C163.634 499.784 162.452 500.108 161.12 500.108C159.944 500.108 158.87 499.838 157.898 499.298C156.926 498.746 156.152 497.984 155.576 497.012C155.012 496.04 154.73 494.942 154.73 493.718ZM171.388 486.68V500H169.336V486.68H171.388ZM178.384 500.162C177.448 500.162 176.602 499.952 175.846 499.532C175.09 499.1 174.496 498.5 174.064 497.732C173.632 496.952 173.416 496.052 173.416 495.032C173.416 494.024 173.638 493.13 174.082 492.35C174.526 491.57 175.132 490.97 175.9 490.55C176.668 490.13 177.526 489.92 178.474 489.92C179.422 489.92 180.28 490.13 181.048 490.55C181.816 490.97 182.422 491.57 182.866 492.35C183.31 493.13 183.532 494.024 183.532 495.032C183.532 496.04 183.304 496.934 182.848 497.714C182.392 498.494 181.768 499.1 180.976 499.532C180.196 499.952 179.332 500.162 178.384 500.162ZM178.384 498.38C178.912 498.38 179.404 498.254 179.86 498.002C180.328 497.75 180.706 497.372 180.994 496.868C181.282 496.364 181.426 495.752 181.426 495.032C181.426 494.312 181.288 493.706 181.012 493.214C180.736 492.71 180.37 492.332 179.914 492.08C179.458 491.828 178.966 491.702 178.438 491.702C177.91 491.702 177.418 491.828 176.962 492.08C176.518 492.332 176.164 492.71 175.9 493.214C175.636 493.706 175.504 494.312 175.504 495.032C175.504 496.1 175.774 496.928 176.314 497.516C176.866 498.092 177.556 498.38 178.384 498.38ZM189.161 500.162C188.381 500.162 187.679 500.024 187.055 499.748C186.443 499.46 185.957 499.076 185.597 498.596C185.237 498.104 185.045 497.558 185.021 496.958H187.145C187.181 497.378 187.379 497.732 187.739 498.02C188.111 498.296 188.573 498.434 189.125 498.434C189.701 498.434 190.145 498.326 190.457 498.11C190.781 497.882 190.943 497.594 190.943 497.246C190.943 496.874 190.763 496.598 190.403 496.418C190.055 496.238 189.497 496.04 188.729 495.824C187.985 495.62 187.379 495.422 186.911 495.23C186.443 495.038 186.035 494.744 185.687 494.348C185.351 493.952 185.183 493.43 185.183 492.782C185.183 492.254 185.339 491.774 185.651 491.342C185.963 490.898 186.407 490.55 186.983 490.298C187.571 490.046 188.243 489.92 188.999 489.92C190.127 489.92 191.033 490.208 191.717 490.784C192.413 491.348 192.785 492.122 192.833 493.106H190.781C190.745 492.662 190.565 492.308 190.241 492.044C189.917 491.78 189.479 491.648 188.927 491.648C188.387 491.648 187.973 491.75 187.685 491.954C187.397 492.158 187.253 492.428 187.253 492.764C187.253 493.028 187.349 493.25 187.541 493.43C187.733 493.61 187.967 493.754 188.243 493.862C188.519 493.958 188.927 494.084 189.467 494.24C190.187 494.432 190.775 494.63 191.231 494.834C191.699 495.026 192.101 495.314 192.437 495.698C192.773 496.082 192.947 496.592 192.959 497.228C192.959 497.792 192.803 498.296 192.491 498.74C192.179 499.184 191.735 499.532 191.159 499.784C190.595 500.036 189.929 500.162 189.161 500.162ZM204.266 494.798C204.266 495.17 204.242 495.506 204.194 495.806H196.616C196.676 496.598 196.97 497.234 197.498 497.714C198.026 498.194 198.674 498.434 199.442 498.434C200.546 498.434 201.326 497.972 201.782 497.048H203.996C203.696 497.96 203.15 498.71 202.358 499.298C201.578 499.874 200.606 500.162 199.442 500.162C198.494 500.162 197.642 499.952 196.886 499.532C196.142 499.1 195.554 498.5 195.122 497.732C194.702 496.952 194.492 496.052 194.492 495.032C194.492 494.012 194.696 493.118 195.104 492.35C195.524 491.57 196.106 490.97 196.85 490.55C197.606 490.13 198.47 489.92 199.442 489.92C200.378 489.92 201.212 490.124 201.944 490.532C202.676 490.94 203.246 491.516 203.654 492.26C204.062 492.992 204.266 493.838 204.266 494.798ZM202.124 494.15C202.112 493.394 201.842 492.788 201.314 492.332C200.786 491.876 200.132 491.648 199.352 491.648C198.644 491.648 198.038 491.876 197.534 492.332C197.03 492.776 196.73 493.382 196.634 494.15H202.124Z" fill="white"/>
<rect x="20" y="219" width="320" height="60" rx="8" fill="#303254"/>
<rect x="291" y="239" width="35" height="19" rx="9.5" fill="#0059FF"/>
<circle cx="316.5" cy="248.5" r="7.5" fill="white"/>
<path d="M131.667 265.278H124.333C123.997 265.278 123.722 265.003 123.722 264.667V257.333C123.722 256.997 123.997 256.722 124.333 256.722H127.389C127.725 256.722 128 256.447 128 256.111C128 255.775 127.725 255.5 127.389 255.5H123.722C123.044 255.5 122.5 256.05 122.5 256.722V265.278C122.5 265.95 123.05 266.5 123.722 266.5H132.278C132.95 266.5 133.5 265.95 133.5 265.278V261.611C133.5 261.275 133.225 261 132.889 261C132.553 261 132.278 261.275 132.278 261.611V264.667C132.278 265.003 132.003 265.278 131.667 265.278ZM129.222 256.111C129.222 256.447 129.497 256.722 129.833 256.722H131.416L126.766 261.373C126.527 261.611 126.527 261.996 126.766 262.234C127.004 262.473 127.389 262.473 127.627 262.234L132.278 257.584V259.167C132.278 259.503 132.553 259.778 132.889 259.778C133.225 259.778 133.5 259.503 133.5 259.167V256.111C133.5 255.775 133.225 255.5 132.889 255.5H129.833C129.497 255.5 129.222 255.775 129.222 256.111Z" fill="#545C7B"/>
<path d="M77.592 238.416C77.592 237.328 77.8427 236.352 78.344 235.488C78.856 234.624 79.544 233.952 80.408 233.472C81.2827 232.981 82.2373 232.736 83.272 232.736C84.456 232.736 85.5067 233.029 86.424 233.616C87.352 234.192 88.024 235.013 88.44 236.08H86.248C85.96 235.493 85.56 235.056 85.048 234.768C84.536 234.48 83.944 234.336 83.272 234.336C82.536 234.336 81.88 234.501 81.304 234.832C80.728 235.163 80.2747 235.637 79.944 236.256C79.624 236.875 79.464 237.595 79.464 238.416C79.464 239.237 79.624 239.957 79.944 240.576C80.2747 241.195 80.728 241.675 81.304 242.016C81.88 242.347 82.536 242.512 83.272 242.512C83.944 242.512 84.536 242.368 85.048 242.08C85.56 241.792 85.96 241.355 86.248 240.768H88.44C88.024 241.835 87.352 242.656 86.424 243.232C85.5067 243.808 84.456 244.096 83.272 244.096C82.2267 244.096 81.272 243.856 80.408 243.376C79.544 242.885 78.856 242.208 78.344 241.344C77.8427 240.48 77.592 239.504 77.592 238.416ZM94.399 244.144C93.567 244.144 92.815 243.957 92.143 243.584C91.471 243.2 90.943 242.667 90.559 241.984C90.175 241.291 89.983 240.491 89.983 239.584C89.983 238.688 90.1803 237.893 90.575 237.2C90.9697 236.507 91.5083 235.973 92.191 235.6C92.8737 235.227 93.6363 235.04 94.479 235.04C95.3217 235.04 96.0843 235.227 96.767 235.6C97.4497 235.973 97.9883 236.507 98.383 237.2C98.7777 237.893 98.975 238.688 98.975 239.584C98.975 240.48 98.7723 241.275 98.367 241.968C97.9617 242.661 97.407 243.2 96.703 243.584C96.0097 243.957 95.2417 244.144 94.399 244.144ZM94.399 242.56C94.8683 242.56 95.3057 242.448 95.711 242.224C96.127 242 96.463 241.664 96.719 241.216C96.975 240.768 97.103 240.224 97.103 239.584C97.103 238.944 96.9803 238.405 96.735 237.968C96.4897 237.52 96.1643 237.184 95.759 236.96C95.3537 236.736 94.9163 236.624 94.447 236.624C93.9777 236.624 93.5403 236.736 93.135 236.96C92.7403 237.184 92.4257 237.52 92.191 237.968C91.9563 238.405 91.839 238.944 91.839 239.584C91.839 240.533 92.079 241.269 92.559 241.792C93.0497 242.304 93.663 242.56 94.399 242.56ZM103.978 244.144C103.285 244.144 102.661 244.021 102.106 243.776C101.562 243.52 101.13 243.179 100.81 242.752C100.49 242.315 100.319 241.829 100.298 241.296H102.186C102.218 241.669 102.394 241.984 102.714 242.24C103.045 242.485 103.455 242.608 103.946 242.608C104.458 242.608 104.853 242.512 105.13 242.32C105.418 242.117 105.562 241.861 105.562 241.552C105.562 241.221 105.402 240.976 105.082 240.816C104.773 240.656 104.277 240.48 103.594 240.288C102.933 240.107 102.394 239.931 101.978 239.76C101.562 239.589 101.199 239.328 100.89 238.976C100.591 238.624 100.442 238.16 100.442 237.584C100.442 237.115 100.581 236.688 100.858 236.304C101.135 235.909 101.53 235.6 102.042 235.376C102.565 235.152 103.162 235.04 103.834 235.04C104.837 235.04 105.642 235.296 106.25 235.808C106.869 236.309 107.199 236.997 107.242 237.872H105.418C105.386 237.477 105.226 237.163 104.938 236.928C104.65 236.693 104.261 236.576 103.77 236.576C103.29 236.576 102.922 236.667 102.666 236.848C102.41 237.029 102.282 237.269 102.282 237.568C102.282 237.803 102.367 238 102.538 238.16C102.709 238.32 102.917 238.448 103.162 238.544C103.407 238.629 103.77 238.741 104.25 238.88C104.89 239.051 105.413 239.227 105.818 239.408C106.234 239.579 106.591 239.835 106.89 240.176C107.189 240.517 107.343 240.971 107.354 241.536C107.354 242.037 107.215 242.485 106.938 242.88C106.661 243.275 106.266 243.584 105.754 243.808C105.253 244.032 104.661 244.144 103.978 244.144ZM119.997 235.04C120.69 235.04 121.309 235.184 121.853 235.472C122.408 235.76 122.84 236.187 123.149 236.752C123.469 237.317 123.629 238 123.629 238.8V244H121.821V239.072C121.821 238.283 121.624 237.68 121.229 237.264C120.834 236.837 120.296 236.624 119.613 236.624C118.93 236.624 118.386 236.837 117.981 237.264C117.586 237.68 117.389 238.283 117.389 239.072V244H115.581V239.072C115.581 238.283 115.384 237.68 114.989 237.264C114.594 236.837 114.056 236.624 113.373 236.624C112.69 236.624 112.146 236.837 111.741 237.264C111.346 237.68 111.149 238.283 111.149 239.072V244H109.325V235.184H111.149V236.192C111.448 235.829 111.826 235.547 112.285 235.344C112.744 235.141 113.234 235.04 113.757 235.04C114.461 235.04 115.09 235.189 115.645 235.488C116.2 235.787 116.626 236.219 116.925 236.784C117.192 236.251 117.608 235.829 118.173 235.52C118.738 235.2 119.346 235.04 119.997 235.04ZM129.774 244.144C128.942 244.144 128.19 243.957 127.518 243.584C126.846 243.2 126.318 242.667 125.934 241.984C125.55 241.291 125.358 240.491 125.358 239.584C125.358 238.688 125.555 237.893 125.95 237.2C126.345 236.507 126.883 235.973 127.566 235.6C128.249 235.227 129.011 235.04 129.854 235.04C130.697 235.04 131.459 235.227 132.142 235.6C132.825 235.973 133.363 236.507 133.758 237.2C134.153 237.893 134.35 238.688 134.35 239.584C134.35 240.48 134.147 241.275 133.742 241.968C133.337 242.661 132.782 243.2 132.078 243.584C131.385 243.957 130.617 244.144 129.774 244.144ZM129.774 242.56C130.243 242.56 130.681 242.448 131.086 242.224C131.502 242 131.838 241.664 132.094 241.216C132.35 240.768 132.478 240.224 132.478 239.584C132.478 238.944 132.355 238.405 132.11 237.968C131.865 237.52 131.539 237.184 131.134 236.96C130.729 236.736 130.291 236.624 129.822 236.624C129.353 236.624 128.915 236.736 128.51 236.96C128.115 237.184 127.801 237.52 127.566 237.968C127.331 238.405 127.214 238.944 127.214 239.584C127.214 240.533 127.454 241.269 127.934 241.792C128.425 242.304 129.038 242.56 129.774 242.56ZM139.353 244.144C138.66 244.144 138.036 244.021 137.481 243.776C136.937 243.52 136.505 243.179 136.185 242.752C135.865 242.315 135.694 241.829 135.673 241.296H137.561C137.593 241.669 137.769 241.984 138.089 242.24C138.42 242.485 138.83 242.608 139.321 242.608C139.833 242.608 140.228 242.512 140.505 242.32C140.793 242.117 140.937 241.861 140.937 241.552C140.937 241.221 140.777 240.976 140.457 240.816C140.148 240.656 139.652 240.48 138.969 240.288C138.308 240.107 137.769 239.931 137.353 239.76C136.937 239.589 136.574 239.328 136.265 238.976C135.966 238.624 135.817 238.16 135.817 237.584C135.817 237.115 135.956 236.688 136.233 236.304C136.51 235.909 136.905 235.6 137.417 235.376C137.94 235.152 138.537 235.04 139.209 235.04C140.212 235.04 141.017 235.296 141.625 235.808C142.244 236.309 142.574 236.997 142.617 237.872H140.793C140.761 237.477 140.601 237.163 140.313 236.928C140.025 236.693 139.636 236.576 139.145 236.576C138.665 236.576 138.297 236.667 138.041 236.848C137.785 237.029 137.657 237.269 137.657 237.568C137.657 237.803 137.742 238 137.913 238.16C138.084 238.32 138.292 238.448 138.537 238.544C138.782 238.629 139.145 238.741 139.625 238.88C140.265 239.051 140.788 239.227 141.193 239.408C141.609 239.579 141.966 239.835 142.265 240.176C142.564 240.517 142.718 240.971 142.729 241.536C142.729 242.037 142.59 242.485 142.313 242.88C142.036 243.275 141.641 243.584 141.129 243.808C140.628 244.032 140.036 244.144 139.353 244.144Z" fill="white"/>
<path d="M83.916 264.012H79.842L79.142 266H77.476L80.962 256.256H82.81L86.296 266H84.616L83.916 264.012ZM83.468 262.71L81.886 258.188L80.29 262.71H83.468ZM94.0977 256.27V257.572H91.5077V266H89.9117V257.572H87.3077V256.27H94.0977ZM100.152 266.098C99.2467 266.098 98.4114 265.888 97.6461 265.468C96.8901 265.039 96.2881 264.446 95.8401 263.69C95.4014 262.925 95.1821 262.066 95.1821 261.114C95.1821 260.162 95.4014 259.308 95.8401 258.552C96.2881 257.796 96.8901 257.208 97.6461 256.788C98.4114 256.359 99.2467 256.144 100.152 256.144C101.067 256.144 101.902 256.359 102.658 256.788C103.423 257.208 104.025 257.796 104.464 258.552C104.903 259.308 105.122 260.162 105.122 261.114C105.122 262.066 104.903 262.925 104.464 263.69C104.025 264.446 103.423 265.039 102.658 265.468C101.902 265.888 101.067 266.098 100.152 266.098ZM100.152 264.712C100.796 264.712 101.37 264.567 101.874 264.278C102.378 263.979 102.77 263.559 103.05 263.018C103.339 262.467 103.484 261.833 103.484 261.114C103.484 260.395 103.339 259.765 103.05 259.224C102.77 258.683 102.378 258.267 101.874 257.978C101.37 257.689 100.796 257.544 100.152 257.544C99.5081 257.544 98.9341 257.689 98.4301 257.978C97.9261 258.267 97.5294 258.683 97.2401 259.224C96.9601 259.765 96.8201 260.395 96.8201 261.114C96.8201 261.833 96.9601 262.467 97.2401 263.018C97.5294 263.559 97.9261 263.979 98.4301 264.278C98.9341 264.567 99.5081 264.712 100.152 264.712ZM116.941 256.27V266H115.345V259.336L112.377 266H111.271L108.289 259.336V266H106.693V256.27H108.415L111.831 263.9L115.233 256.27H116.941Z" fill="#545C7B"/>
<path d="M65.5 249C65.5 257.56 58.5604 264.5 50 264.5C41.4396 264.5 34.5 257.56 34.5 249C34.5 240.44 41.4396 233.5 50 233.5C58.5604 233.5 65.5 240.44 65.5 249Z" fill="#2E3148" stroke="white"/>
<path d="M49.9998 258.284C55.1272 258.284 59.2838 254.127 59.2838 249C59.2838 243.872 55.1272 239.716 49.9998 239.716C44.8724 239.716 40.7158 243.872 40.7158 249C40.7158 254.127 44.8724 258.284 49.9998 258.284Z" fill="#1B1E36"/>
<path d="M50.0328 235.041C48.3057 235.041 46.9053 241.305 46.9053 249.033C46.9053 256.76 48.3057 263.025 50.0328 263.025C51.7599 263.025 53.1604 256.76 53.1604 249.033C53.1604 241.305 51.7599 235.041 50.0328 235.041ZM50.2488 262.235C50.0513 262.498 49.8538 262.301 49.8538 262.301C49.0584 261.379 48.6607 259.667 48.6607 259.667C47.2694 255.19 47.6006 245.577 47.6006 245.577C48.2544 237.945 49.4438 236.142 49.8485 235.742C49.8898 235.701 49.9443 235.676 50.0022 235.671C50.0601 235.666 50.1178 235.682 50.1652 235.716C50.7524 236.132 51.245 237.872 51.245 237.872C52.6995 243.272 52.5677 248.341 52.5677 248.341C52.6994 252.753 51.8389 257.691 51.8389 257.691C51.1765 261.444 50.2488 262.235 50.2488 262.235Z" fill="#6F7390"/>
<path d="M62.1688 242.07C61.3089 240.571 55.1789 242.474 48.4728 246.319C41.7668 250.165 37.0364 254.497 37.8957 255.995C38.755 257.493 44.8856 255.591 51.5917 251.745C58.2977 247.9 63.0281 243.568 62.1688 242.07ZM38.689 255.789C38.3598 255.748 38.4342 255.477 38.4342 255.477C38.838 254.329 40.1232 253.132 40.1232 253.132C43.3159 249.697 51.8197 245.201 51.8197 245.201C58.7642 241.97 60.9212 242.106 61.4684 242.257C61.5246 242.272 61.5734 242.307 61.6062 242.355C61.639 242.404 61.6537 242.462 61.6476 242.52C61.5818 243.237 60.3143 244.53 60.3143 244.53C56.3575 248.479 51.894 250.889 51.894 250.889C48.133 253.199 43.4213 254.909 43.4213 254.909C39.8362 256.201 38.6892 255.789 38.6892 255.789H38.689Z" fill="#6F7390"/>
<path d="M62.1386 256.045C63.0052 254.55 58.2867 250.198 51.6042 246.324C44.9217 242.45 38.7925 240.523 37.9267 242.02C37.0609 243.518 41.7786 247.867 48.4649 251.742C55.1512 255.616 61.2728 257.542 62.1386 256.045ZM38.5009 242.598C38.3729 242.294 38.6431 242.221 38.6431 242.221C39.8394 241.995 41.5197 242.51 41.5197 242.51C46.0913 243.551 54.2429 248.657 54.2429 248.657C60.5192 253.049 61.4817 254.984 61.626 255.533C61.6407 255.589 61.635 255.649 61.6099 255.701C61.5848 255.754 61.542 255.796 61.489 255.82C60.8346 256.12 59.0817 255.673 59.0817 255.673C53.6792 254.225 49.3586 251.57 49.3586 251.57C45.4765 249.477 41.6378 246.255 41.6378 246.255C38.7209 243.799 38.5018 242.601 38.5018 242.601L38.5009 242.598Z" fill="#6F7390"/>
<path d="M49.9996 250.646C50.9087 250.646 51.6457 249.909 51.6457 249C51.6457 248.09 50.9087 247.354 49.9996 247.354C49.0905 247.354 48.3535 248.09 48.3535 249C48.3535 249.909 49.0905 250.646 49.9996 250.646Z" fill="#B7B9C8"/>
<path d="M56.7487 243.667C57.276 243.667 57.7034 243.225 57.7034 242.679C57.7034 242.134 57.276 241.691 56.7487 241.691C56.2214 241.691 55.7939 242.134 55.7939 242.679C55.7939 243.225 56.2214 243.667 56.7487 243.667Z" fill="#B7B9C8"/>
<path d="M41.0778 247.025C41.6051 247.025 42.0326 246.583 42.0326 246.037C42.0326 245.492 41.6051 245.05 41.0778 245.05C40.5505 245.05 40.123 245.492 40.123 246.037C40.123 246.583 40.5505 247.025 41.0778 247.025Z" fill="#B7B9C8"/>
<path d="M48.0573 259.14C48.5846 259.14 49.012 258.698 49.012 258.153C49.012 257.607 48.5846 257.165 48.0573 257.165C47.53 257.165 47.1025 257.607 47.1025 258.153C47.1025 258.698 47.53 259.14 48.0573 259.14Z" fill="#B7B9C8"/>
<rect width="360" height="47" fill="#181735"/>
<circle cx="335" cy="24" r="5" fill="#40C55D"/>
<rect x="16" y="16.5" width="18" height="2" rx="0.5" fill="#545C7B"/>
<rect x="16" y="22.5" width="18" height="2" rx="0.5" fill="#545C7B"/>
<rect x="16" y="28.5" width="18" height="2" rx="0.5" fill="#545C7B"/>
<line y1="46.5029" x2="360" y2="46.5029" stroke="#252349"/>
<path d="M171.682 33.2591C170.518 32.1431 169.612 30.7031 168.964 28.9391C168.316 27.1751 167.992 25.2731 167.992 23.2331C167.992 21.1691 168.328 19.2431 169 17.4551C169.672 15.6551 170.626 14.1911 171.862 13.0631H174.886V13.3511C173.626 14.5991 172.654 16.0991 171.97 17.8511C171.286 19.5911 170.944 21.3851 170.944 23.2331C170.944 25.0691 171.274 26.8391 171.934 28.5431C172.594 30.2471 173.524 31.7231 174.724 32.9711V33.2591H171.682ZM179.936 19.3091C180.644 19.3091 181.262 19.4531 181.79 19.7411C182.33 20.0291 182.744 20.4071 183.032 20.8751V19.4531H186.11V29.4791C186.11 30.4031 185.924 31.2371 185.552 31.9811C185.192 32.7371 184.634 33.3371 183.878 33.7811C183.134 34.2251 182.204 34.4471 181.088 34.4471C179.6 34.4471 178.394 34.0931 177.47 33.3851C176.546 32.6891 176.018 31.7411 175.886 30.5411H178.928C179.024 30.9251 179.252 31.2251 179.612 31.4411C179.972 31.6691 180.416 31.7831 180.944 31.7831C181.58 31.7831 182.084 31.5971 182.456 31.2251C182.84 30.8651 183.032 30.2831 183.032 29.4791V28.0571C182.732 28.5251 182.318 28.9091 181.79 29.2091C181.262 29.4971 180.644 29.6411 179.936 29.6411C179.108 29.6411 178.358 29.4311 177.686 29.0111C177.014 28.5791 176.48 27.9731 176.084 27.1931C175.7 26.4011 175.508 25.4891 175.508 24.4571C175.508 23.4251 175.7 22.5191 176.084 21.7391C176.48 20.9591 177.014 20.3591 177.686 19.9391C178.358 19.5191 179.108 19.3091 179.936 19.3091ZM183.032 24.4751C183.032 23.7071 182.816 23.1011 182.384 22.6571C181.964 22.2131 181.448 21.9911 180.836 21.9911C180.224 21.9911 179.702 22.2131 179.27 22.6571C178.85 23.0891 178.64 23.6891 178.64 24.4571C178.64 25.2251 178.85 25.8371 179.27 26.2931C179.702 26.7371 180.224 26.9591 180.836 26.9591C181.448 26.9591 181.964 26.7371 182.384 26.2931C182.816 25.8491 183.032 25.2431 183.032 24.4751ZM194.457 19.3451C195.633 19.3451 196.569 19.7291 197.265 20.4971C197.973 21.2531 198.327 22.2971 198.327 23.6291V29.4971H195.267V24.0431C195.267 23.3711 195.093 22.8491 194.745 22.4771C194.397 22.1051 193.929 21.9191 193.341 21.9191C192.753 21.9191 192.285 22.1051 191.937 22.4771C191.589 22.8491 191.415 23.3711 191.415 24.0431V29.4971H188.337V19.4531H191.415V20.7851C191.727 20.3411 192.147 19.9931 192.675 19.7411C193.203 19.4771 193.797 19.3451 194.457 19.3451ZM205.038 29.6411C204.054 29.6411 203.166 29.4311 202.374 29.0111C201.594 28.5911 200.976 27.9911 200.52 27.2111C200.076 26.4311 199.854 25.5191 199.854 24.4751C199.854 23.4431 200.082 22.5371 200.538 21.7571C200.994 20.9651 201.618 20.3591 202.41 19.9391C203.202 19.5191 204.09 19.3091 205.074 19.3091C206.058 19.3091 206.946 19.5191 207.738 19.9391C208.53 20.3591 209.154 20.9651 209.61 21.7571C210.066 22.5371 210.294 23.4431 210.294 24.4751C210.294 25.5071 210.06 26.4191 209.592 27.2111C209.136 27.9911 208.506 28.5911 207.702 29.0111C206.91 29.4311 206.022 29.6411 205.038 29.6411ZM205.038 26.9771C205.626 26.9771 206.124 26.7611 206.532 26.3291C206.952 25.8971 207.162 25.2791 207.162 24.4751C207.162 23.6711 206.958 23.0531 206.55 22.6211C206.154 22.1891 205.662 21.9731 205.074 21.9731C204.474 21.9731 203.976 22.1891 203.58 22.6211C203.184 23.0411 202.986 23.6591 202.986 24.4751C202.986 25.2791 203.178 25.8971 203.562 26.3291C203.958 26.7611 204.45 26.9771 205.038 26.9771ZM211.297 19.2191V16.3571H216.283V29.4971H213.079V19.2191H211.297ZM220.134 29.6411C219.594 29.6411 219.15 29.4851 218.802 29.1731C218.466 28.8491 218.298 28.4531 218.298 27.9851C218.298 27.5051 218.466 27.1031 218.802 26.7791C219.15 26.4551 219.594 26.2931 220.134 26.2931C220.662 26.2931 221.094 26.4551 221.43 26.7791C221.778 27.1031 221.952 27.5051 221.952 27.9851C221.952 28.4531 221.778 28.8491 221.43 29.1731C221.094 29.4851 220.662 29.6411 220.134 29.6411ZM225.214 29.6411C224.674 29.6411 224.23 29.4851 223.882 29.1731C223.546 28.8491 223.378 28.4531 223.378 27.9851C223.378 27.5051 223.546 27.1031 223.882 26.7791C224.23 26.4551 224.674 26.2931 225.214 26.2931C225.742 26.2931 226.174 26.4551 226.51 26.7791C226.858 27.1031 227.032 27.5051 227.032 27.9851C227.032 28.4531 226.858 28.8491 226.51 29.1731C226.174 29.4851 225.742 29.6411 225.214 29.6411ZM230.294 29.6411C229.754 29.6411 229.31 29.4851 228.962 29.1731C228.626 28.8491 228.458 28.4531 228.458 27.9851C228.458 27.5051 228.626 27.1031 228.962 26.7791C229.31 26.4551 229.754 26.2931 230.294 26.2931C230.822 26.2931 231.254 26.4551 231.59 26.7791C231.938 27.1031 232.112 27.5051 232.112 27.9851C232.112 28.4531 231.938 28.8491 231.59 29.1731C231.254 29.4851 230.822 29.6411 230.294 29.6411ZM243.402 24.3131C243.402 24.6011 243.384 24.9011 243.348 25.2131H236.382C236.43 25.8371 236.628 26.3171 236.976 26.6531C237.336 26.9771 237.774 27.1391 238.29 27.1391C239.058 27.1391 239.592 26.8151 239.892 26.1671H243.168C243 26.8271 242.694 27.4211 242.25 27.9491C241.818 28.4771 241.272 28.8911 240.612 29.1911C239.952 29.4911 239.214 29.6411 238.398 29.6411C237.414 29.6411 236.538 29.4311 235.77 29.0111C235.002 28.5911 234.402 27.9911 233.97 27.2111C233.538 26.4311 233.322 25.5191 233.322 24.4751C233.322 23.4311 233.532 22.5191 233.952 21.7391C234.384 20.9591 234.984 20.3591 235.752 19.9391C236.52 19.5191 237.402 19.3091 238.398 19.3091C239.37 19.3091 240.234 19.5131 240.99 19.9211C241.746 20.3291 242.334 20.9111 242.754 21.6671C243.186 22.4231 243.402 23.3051 243.402 24.3131ZM240.252 23.5031C240.252 22.9751 240.072 22.5551 239.712 22.2431C239.352 21.9311 238.902 21.7751 238.362 21.7751C237.846 21.7751 237.408 21.9251 237.048 22.2251C236.7 22.5251 236.484 22.9511 236.4 23.5031H240.252ZM253.972 19.0391H248.356V21.5231C248.596 21.2591 248.932 21.0431 249.364 20.8751C249.796 20.7071 250.264 20.6231 250.768 20.6231C251.668 20.6231 252.412 20.8271 253 21.2351C253.6 21.6431 254.038 22.1711 254.314 22.8191C254.59 23.4671 254.728 24.1691 254.728 24.9251C254.728 26.3291 254.332 27.4451 253.54 28.2731C252.748 29.0891 251.632 29.4971 250.192 29.4971C249.232 29.4971 248.398 29.3351 247.69 29.0111C246.982 28.6751 246.436 28.2131 246.052 27.6251C245.668 27.0371 245.458 26.3591 245.422 25.5911H248.428C248.5 25.9631 248.674 26.2751 248.95 26.5271C249.226 26.7671 249.604 26.8871 250.084 26.8871C250.648 26.8871 251.068 26.7071 251.344 26.3471C251.62 25.9871 251.758 25.5071 251.758 24.9071C251.758 24.3191 251.614 23.8691 251.326 23.5571C251.038 23.2451 250.618 23.0891 250.066 23.0891C249.658 23.0891 249.322 23.1911 249.058 23.3951C248.794 23.5871 248.62 23.8451 248.536 24.1691H245.566V16.3391H253.972V19.0391ZM265.679 19.0391H260.063V21.5231C260.303 21.2591 260.639 21.0431 261.071 20.8751C261.503 20.7071 261.971 20.6231 262.475 20.6231C263.375 20.6231 264.119 20.8271 264.707 21.2351C265.307 21.6431 265.745 22.1711 266.021 22.8191C266.297 23.4671 266.435 24.1691 266.435 24.9251C266.435 26.3291 266.039 27.4451 265.247 28.2731C264.455 29.0891 263.339 29.4971 261.899 29.4971C260.939 29.4971 260.105 29.3351 259.397 29.0111C258.689 28.6751 258.143 28.2131 257.759 27.6251C257.375 27.0371 257.165 26.3591 257.129 25.5911H260.135C260.207 25.9631 260.381 26.2751 260.657 26.5271C260.933 26.7671 261.311 26.8871 261.791 26.8871C262.355 26.8871 262.775 26.7071 263.051 26.3471C263.327 25.9871 263.465 25.5071 263.465 24.9071C263.465 24.3191 263.321 23.8691 263.033 23.5571C262.745 23.2451 262.325 23.0891 261.773 23.0891C261.365 23.0891 261.029 23.1911 260.765 23.3951C260.501 23.5871 260.327 23.8451 260.243 24.1691H257.273V16.3391H265.679V19.0391ZM270.294 22.4411C269.166 21.8411 268.602 20.8991 268.602 19.6151C268.602 18.9671 268.77 18.3791 269.106 17.8511C269.442 17.3111 269.952 16.8851 270.636 16.5731C271.32 16.2491 272.16 16.0871 273.156 16.0871C274.152 16.0871 274.986 16.2491 275.658 16.5731C276.342 16.8851 276.852 17.3111 277.188 17.8511C277.524 18.3791 277.692 18.9671 277.692 19.6151C277.692 20.2631 277.536 20.8271 277.224 21.3071C276.924 21.7871 276.516 22.1651 276 22.4411C276.648 22.7531 277.146 23.1851 277.494 23.7371C277.842 24.2771 278.016 24.9131 278.016 25.6451C278.016 26.4971 277.8 27.2351 277.368 27.8591C276.936 28.4711 276.348 28.9391 275.604 29.2631C274.872 29.5871 274.056 29.7491 273.156 29.7491C272.256 29.7491 271.434 29.5871 270.69 29.2631C269.958 28.9391 269.376 28.4711 268.944 27.8591C268.512 27.2351 268.296 26.4971 268.296 25.6451C268.296 24.9011 268.47 24.2591 268.818 23.7191C269.166 23.1671 269.658 22.7411 270.294 22.4411ZM274.704 20.0831C274.704 19.5911 274.56 19.2131 274.272 18.9491C273.996 18.6731 273.624 18.5351 273.156 18.5351C272.688 18.5351 272.31 18.6731 272.022 18.9491C271.746 19.2251 271.608 19.6091 271.608 20.1011C271.608 20.5691 271.752 20.9411 272.04 21.2171C272.328 21.4811 272.7 21.6131 273.156 21.6131C273.612 21.6131 273.984 21.4751 274.272 21.1991C274.56 20.9231 274.704 20.5511 274.704 20.0831ZM273.156 23.7731C272.592 23.7731 272.136 23.9291 271.788 24.2411C271.44 24.5411 271.266 24.9611 271.266 25.5011C271.266 26.0051 271.434 26.4191 271.77 26.7431C272.118 27.0671 272.58 27.2291 273.156 27.2291C273.732 27.2291 274.182 27.0671 274.506 26.7431C274.842 26.4191 275.01 26.0051 275.01 25.5011C275.01 24.9731 274.836 24.5531 274.488 24.2411C274.152 23.9291 273.708 23.7731 273.156 23.7731ZM279.284 33.2591V32.9711C280.484 31.7231 281.414 30.2471 282.074 28.5431C282.734 26.8391 283.064 25.0691 283.064 23.2331C283.064 21.3851 282.722 19.5911 282.038 17.8511C281.354 16.0991 280.382 14.5991 279.122 13.3511V13.0631H282.146C283.382 14.1911 284.336 15.6551 285.008 17.4551C285.68 19.2431 286.016 21.1691 286.016 23.2331C286.016 25.2731 285.692 27.1751 285.044 28.9391C284.396 30.7031 283.49 32.1431 282.326 33.2591H279.284Z" fill="#545C7B"/>
<path d="M81.1412 27.2651H76.4252L75.6692 29.4971H72.4472L77.0192 16.8611H80.5832L85.1552 29.4971H81.8972L81.1412 27.2651ZM80.3492 24.8891L78.7832 20.2631L77.2352 24.8891H80.3492ZM85.9347 24.4751C85.9347 23.4311 86.1447 22.5191 86.5647 21.7391C86.9967 20.9591 87.5907 20.3591 88.3467 19.9391C89.1147 19.5191 89.9907 19.3091 90.9747 19.3091C92.2347 19.3091 93.2847 19.6391 94.1247 20.2991C94.9767 20.9591 95.5347 21.8891 95.7987 23.0891H92.5227C92.2467 22.3211 91.7127 21.9371 90.9207 21.9371C90.3567 21.9371 89.9067 22.1591 89.5707 22.6031C89.2347 23.0351 89.0667 23.6591 89.0667 24.4751C89.0667 25.2911 89.2347 25.9211 89.5707 26.3651C89.9067 26.7971 90.3567 27.0131 90.9207 27.0131C91.7127 27.0131 92.2467 26.6291 92.5227 25.8611H95.7987C95.5347 27.0371 94.9767 27.9611 94.1247 28.6331C93.2727 29.3051 92.2227 29.6411 90.9747 29.6411C89.9907 29.6411 89.1147 29.4311 88.3467 29.0111C87.5907 28.5911 86.9967 27.9911 86.5647 27.2111C86.1447 26.4311 85.9347 25.5191 85.9347 24.4751ZM96.8331 24.4751C96.8331 23.4311 97.0431 22.5191 97.4631 21.7391C97.8951 20.9591 98.4891 20.3591 99.2451 19.9391C100.013 19.5191 100.889 19.3091 101.873 19.3091C103.133 19.3091 104.183 19.6391 105.023 20.2991C105.875 20.9591 106.433 21.8891 106.697 23.0891H103.421C103.145 22.3211 102.611 21.9371 101.819 21.9371C101.255 21.9371 100.805 22.1591 100.469 22.6031C100.133 23.0351 99.9651 23.6591 99.9651 24.4751C99.9651 25.2911 100.133 25.9211 100.469 26.3651C100.805 26.7971 101.255 27.0131 101.819 27.0131C102.611 27.0131 103.145 26.6291 103.421 25.8611H106.697C106.433 27.0371 105.875 27.9611 105.023 28.6331C104.171 29.3051 103.121 29.6411 101.873 29.6411C100.889 29.6411 100.013 29.4311 99.2451 29.0111C98.4891 28.5911 97.8951 27.9911 97.4631 27.2111C97.0431 26.4311 96.8331 25.5191 96.8331 24.4751ZM112.916 29.6411C111.932 29.6411 111.044 29.4311 110.252 29.0111C109.472 28.5911 108.854 27.9911 108.398 27.2111C107.954 26.4311 107.732 25.5191 107.732 24.4751C107.732 23.4431 107.96 22.5371 108.416 21.7571C108.872 20.9651 109.496 20.3591 110.288 19.9391C111.08 19.5191 111.968 19.3091 112.952 19.3091C113.936 19.3091 114.824 19.5191 115.616 19.9391C116.408 20.3591 117.032 20.9651 117.488 21.7571C117.944 22.5371 118.172 23.4431 118.172 24.4751C118.172 25.5071 117.938 26.4191 117.47 27.2111C117.014 27.9911 116.384 28.5911 115.58 29.0111C114.788 29.4311 113.9 29.6411 112.916 29.6411ZM112.916 26.9771C113.504 26.9771 114.002 26.7611 114.41 26.3291C114.83 25.8971 115.04 25.2791 115.04 24.4751C115.04 23.6711 114.836 23.0531 114.428 22.6211C114.032 22.1891 113.54 21.9731 112.952 21.9731C112.352 21.9731 111.854 22.1891 111.458 22.6211C111.062 23.0411 110.864 23.6591 110.864 24.4751C110.864 25.2791 111.056 25.8971 111.44 26.3291C111.836 26.7611 112.328 26.9771 112.916 26.9771ZM129.722 19.4531V29.4971H126.644V28.1291C126.332 28.5731 125.906 28.9331 125.366 29.2091C124.838 29.4731 124.25 29.6051 123.602 29.6051C122.834 29.6051 122.156 29.4371 121.568 29.1011C120.98 28.7531 120.524 28.2551 120.2 27.6071C119.876 26.9591 119.714 26.1971 119.714 25.3211V19.4531H122.774V24.9071C122.774 25.5791 122.948 26.1011 123.296 26.4731C123.644 26.8451 124.112 27.0311 124.7 27.0311C125.3 27.0311 125.774 26.8451 126.122 26.4731C126.47 26.1011 126.644 25.5791 126.644 24.9071V19.4531H129.722ZM138.053 19.3451C139.229 19.3451 140.165 19.7291 140.861 20.4971C141.569 21.2531 141.923 22.2971 141.923 23.6291V29.4971H138.863V24.0431C138.863 23.3711 138.689 22.8491 138.341 22.4771C137.993 22.1051 137.525 21.9191 136.937 21.9191C136.349 21.9191 135.881 22.1051 135.533 22.4771C135.185 22.8491 135.011 23.3711 135.011 24.0431V29.4971H131.933V19.4531H135.011V20.7851C135.323 20.3411 135.743 19.9931 136.271 19.7411C136.799 19.4771 137.393 19.3451 138.053 19.3451ZM149.66 26.8871V29.4971H148.094C146.978 29.4971 146.108 29.2271 145.484 28.6871C144.86 28.1351 144.548 27.2411 144.548 26.0051V22.0091H143.324V19.4531H144.548V17.0051H147.626V19.4531H149.642V22.0091H147.626V26.0411C147.626 26.3411 147.698 26.5571 147.842 26.6891C147.986 26.8211 148.226 26.8871 148.562 26.8871H149.66ZM154.559 19.2191V16.3571H159.545V29.4971H156.341V19.2191H154.559Z" fill="white"/>
</svg>
