<svg width="75" height="86" viewBox="0 0 75 86" fill="none" xmlns="http://www.w3.org/2000/svg">
<circle opacity="0.6" cx="24.3506" cy="60.961" r="24.3506" fill="#377DFF"/>
<g opacity="0.6" filter="url(#filter0_b_11_1023)">
<path d="M75.0006 38.6728V27.0431H68.8962C68.8962 24.0476 69.2273 21.2722 68.8344 18.6022C67.2145 7.55747 57.6673 -0.153197 46.8709 0.625347C35.6949 1.43028 27.5027 10.3022 27.4497 21.7384C27.4497 23.4318 27.4497 25.1297 27.4497 27.0563H21.4292V38.6728C21.4292 47.3233 21.4292 55.9738 21.4292 64.6243C21.4292 69.2912 23.7906 71.662 28.4914 71.662C41.6566 71.6796 54.8232 71.6796 67.9914 71.662C72.6701 71.662 74.9344 69.4363 74.9786 64.8134C75.0227 60.5644 74.9786 56.311 74.9786 52.0576V38.6728H75.0006ZM55.7781 60.3137H40.3516L44.5448 49.6384C43.2819 48.9933 42.2222 48.0133 41.4824 46.8065C40.7426 45.5997 40.3512 44.2129 40.3516 42.7987C40.3527 40.7603 41.1661 38.8058 42.6129 37.3648C44.0597 35.9239 46.0215 35.1144 48.0671 35.1144C50.1122 35.1144 52.0735 35.924 53.5196 37.3651C54.9657 38.8062 55.7781 40.7607 55.7781 42.7987C55.7776 44.2121 55.3859 45.5981 54.6461 46.804C53.9063 48.01 52.8471 48.9892 51.5849 49.634L55.7781 60.3137ZM59.8213 27.0431H36.2202C36.4938 23.9157 36.3614 20.8059 37.1029 17.9249C38.5242 12.4443 43.7238 9.2773 49.6075 9.77434C54.7144 10.2142 59.1327 14.4016 59.7595 19.7459C60.0552 22.0991 59.8213 24.5139 59.8213 27.0431Z" fill="#78A7FF"/>
</g>
<defs>
<filter id="filter0_b_11_1023" x="-4.5708" y="-25.4287" width="105.572" height="123.104" filterUnits="userSpaceOnUse" color-interpolation-filters="sRGB">
<feFlood flood-opacity="0" result="BackgroundImageFix"/>
<feGaussianBlur in="BackgroundImage" stdDeviation="13"/>
<feComposite in2="SourceAlpha" operator="in" result="effect1_backgroundBlur_11_1023"/>
<feBlend mode="normal" in="SourceGraphic" in2="effect1_backgroundBlur_11_1023" result="shape"/>
</filter>
</defs>
</svg>
