<svg width="160" height="33" viewBox="0 0 160 33" fill="none" xmlns="http://www.w3.org/2000/svg">
<g clip-path="url(#clip0_11_988)">
<path d="M22.4623 2.49976C21.1061 0.109486 18.1031 -0.709779 15.7549 0.669878C13.4066 2.04954 12.6023 5.10567 13.9584 7.49594L27.0105 30.5011C28.3667 32.8913 31.3697 33.7106 33.718 32.3309C36.0662 30.9513 36.8705 27.8951 35.5144 25.5049L22.4623 2.49976Z" fill="url(#paint0_linear_11_988)"/>
<path d="M27.242 11.0115C22.8448 8.66537 19.9028 11.8873 18.6171 13.8407C18.4117 14.1491 18.2219 14.468 18.0485 14.7961C17.9572 14.9633 17.9077 15.0801 17.8894 15.1199C17.8712 15.1597 17.8894 15.1199 17.8894 15.1332L16.189 18.1216L9.16281 30.5026C8.51192 31.6499 7.43979 32.4872 6.18229 32.8301C4.9248 33.173 3.58493 32.9936 2.45745 32.3312C1.32998 31.6688 0.507245 30.5778 0.17025 29.2982C-0.166746 28.0185 0.00959975 26.6551 0.660493 25.5077L12.8167 4.08188L13.7139 2.48948C14.1455 1.73084 14.766 1.10131 15.5127 0.664278C16.2595 0.227245 17.1062 -0.00186587 17.9677 1.14447e-05H18.1581C19.0205 -0.000520863 19.8678 0.230308 20.6146 0.669231C21.3614 1.10815 21.9813 1.73966 22.4118 2.50009L27.242 11.0115Z" fill="white"/>
<path d="M64.3046 10.4138H67.1213C67.2949 10.4138 67.4614 10.484 67.5842 10.6089C67.7069 10.7338 67.7759 10.9033 67.7759 11.08V29.1936C67.7759 29.3703 67.7069 29.5397 67.5842 29.6646C67.4614 29.7896 67.2949 29.8598 67.1213 29.8598H64.3046C64.1309 29.8598 63.9644 29.7896 63.8417 29.6646C63.7189 29.5397 63.6499 29.3703 63.6499 29.1936V28.8141C63.6503 28.6848 63.6135 28.5583 63.5442 28.45C63.4748 28.3417 63.3759 28.2563 63.2596 28.2045C63.1432 28.1526 63.0145 28.1364 62.8893 28.158C62.764 28.1795 62.6477 28.2378 62.5545 28.3257C61.1079 29.6864 59.2431 30.3667 56.9602 30.3667C55.6961 30.3814 54.4432 30.1236 53.2839 29.6104C52.1246 29.0972 51.0852 28.3401 50.234 27.3889C48.3736 25.4072 47.4434 22.9894 47.4434 20.1354C47.4434 17.2815 48.3736 14.8575 50.234 12.8634C51.0885 11.918 52.129 11.1661 53.2879 10.6567C54.4467 10.1473 55.698 9.89183 56.9602 9.90688C59.2431 9.90688 61.1088 10.5792 62.5571 11.9239C62.6505 12.0111 62.7669 12.0687 62.8919 12.0897C63.017 12.1106 63.1453 12.0941 63.2613 12.042C63.3772 11.9899 63.4757 11.9045 63.5447 11.7964C63.6138 11.6882 63.6503 11.5619 63.6499 11.4329V11.08C63.6499 10.9033 63.7189 10.7338 63.8417 10.6089C63.9644 10.484 64.1309 10.4138 64.3046 10.4138ZM53.2907 24.5889C54.4514 25.7248 55.9992 26.3593 57.6096 26.3593C59.22 26.3593 60.7679 25.7248 61.9286 24.5889C62.4974 24.0042 62.9433 23.3079 63.2392 22.5422C63.5351 21.7766 63.6749 20.9578 63.6499 20.1354C63.6743 19.3132 63.5342 18.4945 63.2383 17.729C62.9425 16.9635 62.4969 16.2671 61.9286 15.682C60.7669 14.5479 59.2194 13.9146 57.6096 13.9146C55.9998 13.9146 54.4523 14.5479 53.2907 15.682C52.7232 16.2676 52.2784 16.9641 51.983 17.7295C51.6876 18.495 51.5477 19.3135 51.5719 20.1354C51.5473 20.9575 51.6869 21.7761 51.9823 22.5416C52.2778 23.3071 52.7229 24.0036 53.2907 24.5889Z" fill="white"/>
<path d="M88.3827 2.63477H91.1994C91.373 2.63477 91.5395 2.70495 91.6623 2.82988C91.785 2.95481 91.854 3.12425 91.854 3.30092V29.1935C91.854 29.3702 91.785 29.5396 91.6623 29.6645C91.5395 29.7895 91.373 29.8596 91.1994 29.8596H88.3827C88.2091 29.8596 88.0425 29.7895 87.9198 29.6645C87.797 29.5396 87.728 29.3702 87.728 29.1935V28.814C87.7284 28.6847 87.6916 28.5581 87.6223 28.4499C87.5529 28.3416 87.454 28.2562 87.3377 28.2044C87.2213 28.1525 87.0926 28.1363 86.9674 28.1579C86.8421 28.1794 86.7258 28.2377 86.6327 28.3256C85.186 29.6862 83.3213 30.3666 81.0383 30.3666C79.7742 30.3813 78.5213 30.1235 77.362 29.6103C76.2027 29.0971 75.1633 28.34 74.3121 27.3888C72.4534 25.4071 71.5232 22.9893 71.5215 20.1353C71.5197 17.2814 72.45 14.8574 74.3121 12.8633C75.1666 11.9178 76.2072 11.166 77.366 10.6566C78.5249 10.1472 79.7761 9.89172 81.0383 9.90676C83.3213 9.90676 85.1869 10.5791 86.6353 11.9238C86.7287 12.011 86.845 12.0686 86.9701 12.0896C87.0951 12.1105 87.2234 12.0939 87.3394 12.0419C87.4553 11.9898 87.5538 11.9044 87.6229 11.7962C87.6919 11.6881 87.7284 11.5618 87.728 11.4328V3.30092C87.728 3.12425 87.797 2.95481 87.9198 2.82988C88.0425 2.70495 88.2091 2.63477 88.3827 2.63477ZM77.3688 24.5888C78.5295 25.7247 80.0774 26.3592 81.6877 26.3592C83.2981 26.3592 84.846 25.7247 86.0067 24.5888C86.5755 24.0041 87.0214 23.3077 87.3173 22.5421C87.6132 21.7765 87.753 20.9576 87.728 20.1353C87.7524 19.3131 87.6123 18.4944 87.3165 17.7289C87.0206 16.9633 86.575 16.2669 86.0067 15.6819C84.8451 14.5478 83.2976 13.9145 81.6877 13.9145C80.0779 13.9145 78.5304 14.5478 77.3688 15.6819C76.8014 16.2674 76.3565 16.964 76.0611 17.7294C75.7657 18.4949 75.6258 19.3133 75.6501 20.1353C75.6254 20.9574 75.765 21.776 76.0604 22.5415C76.3559 23.307 76.801 24.0035 77.3688 24.5888Z" fill="white"/>
<path d="M100.784 21.9282C100.678 21.9287 100.573 21.9555 100.479 22.0063C100.384 22.0572 100.304 22.1305 100.244 22.2201C100.184 22.3097 100.146 22.4128 100.134 22.5205C100.122 22.6283 100.135 22.7374 100.174 22.8386C100.521 23.8438 101.166 24.7146 102.02 25.3307C103.116 26.1216 104.454 26.517 106.034 26.517C108.016 26.517 109.55 25.8588 110.635 24.5424C110.734 24.4238 110.872 24.3445 111.023 24.3184C111.174 24.2922 111.329 24.3207 111.462 24.3991L113.738 25.7447C113.82 25.7934 113.89 25.8592 113.944 25.9378C113.998 26.0163 114.035 26.1058 114.052 26.2001C114.07 26.2944 114.067 26.3914 114.044 26.4845C114.021 26.5776 113.979 26.6647 113.921 26.74C112.043 29.1586 109.401 30.368 105.995 30.368C102.886 30.368 100.376 29.4019 98.4656 27.4698C96.5547 25.5377 95.5984 23.0933 95.5967 20.1368C95.5967 17.2333 96.5399 14.8031 98.4264 12.8462C100.313 10.8893 102.733 9.90997 105.687 9.9082C108.492 9.9082 110.791 10.907 112.586 12.9046C114.38 14.9022 115.277 17.3244 115.277 20.1713C115.273 20.5573 115.248 20.9427 115.202 21.3258C115.183 21.4891 115.107 21.6399 114.987 21.7499C114.867 21.8599 114.711 21.9214 114.55 21.9229L100.784 21.9282ZM100.727 18.5046H110.291C110.391 18.5049 110.491 18.4815 110.581 18.4363C110.672 18.391 110.751 18.3251 110.812 18.2437C110.874 18.1622 110.916 18.0675 110.935 17.9668C110.955 17.8661 110.951 17.7622 110.924 17.6632C110.646 16.5866 110.037 15.6282 109.187 14.9269C108.18 14.123 106.931 13.6974 105.651 13.722C104.122 13.722 102.849 14.1493 101.83 15.0039C101.01 15.6979 100.408 16.6203 100.096 17.6579C100.068 17.757 100.064 17.8613 100.083 17.9625C100.101 18.0636 100.143 18.159 100.204 18.241C100.265 18.323 100.344 18.3895 100.435 18.4353C100.526 18.481 100.626 18.5047 100.727 18.5046Z" fill="white"/>
<path d="M128.964 9.9082C131.156 9.9082 132.927 10.6212 134.276 12.0473C135.626 13.4734 136.301 15.4312 136.303 17.9207V29.1949C136.303 29.3716 136.234 29.541 136.111 29.666C135.988 29.7909 135.822 29.8611 135.648 29.8611H132.829C132.655 29.8611 132.489 29.7909 132.366 29.666C132.243 29.541 132.174 29.3716 132.174 29.1949V18.348C132.174 16.8971 131.793 15.7824 131.029 15.0039C130.266 14.2254 129.223 13.8361 127.9 13.8361C126.446 13.8361 125.274 14.2971 124.384 15.2189C123.494 16.1407 123.048 17.5473 123.046 19.4388V29.1949C123.046 29.3716 122.977 29.541 122.854 29.666C122.731 29.7909 122.565 29.8611 122.391 29.8611H119.567C119.393 29.8611 119.227 29.7909 119.104 29.666C118.981 29.541 118.912 29.3716 118.912 29.1949V11.0813C118.912 10.9046 118.981 10.7352 119.104 10.6102C119.227 10.4853 119.393 10.4151 119.567 10.4151H122.386C122.56 10.4151 122.726 10.4853 122.849 10.6102C122.972 10.7352 123.041 10.9046 123.041 11.0813C123.04 11.2091 123.075 11.3345 123.142 11.4425C123.209 11.5504 123.305 11.6364 123.42 11.6899C123.534 11.7434 123.66 11.7623 123.785 11.7443C123.909 11.7262 124.026 11.672 124.12 11.5882C125.329 10.4682 126.943 9.9082 128.964 9.9082Z" fill="white"/>
<path d="M156.526 10.4138H159.353C159.526 10.4138 159.693 10.484 159.816 10.6089C159.938 10.7338 160.007 10.9033 160.007 11.0799V29.1936C160.007 29.3703 159.938 29.5397 159.816 29.6646C159.693 29.7896 159.526 29.8597 159.353 29.8597H156.526C156.352 29.8597 156.185 29.7896 156.063 29.6646C155.94 29.5397 155.871 29.3703 155.871 29.1936V28.8141C155.871 28.6853 155.834 28.5594 155.765 28.4516C155.695 28.3439 155.597 28.2589 155.481 28.2072C155.365 28.1554 155.237 28.139 155.112 28.1601C154.987 28.1811 154.871 28.2387 154.778 28.3257C153.328 29.6864 151.463 30.3667 149.184 30.3667C147.92 30.3817 146.667 30.1241 145.507 29.6109C144.348 29.0976 143.309 28.3403 142.458 27.3889C140.595 25.4072 139.665 22.9894 139.667 20.1354C139.669 17.2815 140.599 14.8575 142.458 12.8634C143.312 11.918 144.352 11.1662 145.51 10.6568C146.669 10.1474 147.919 9.89187 149.181 9.90687C151.464 9.90687 153.33 10.5792 154.778 11.9239C154.871 12.0115 154.987 12.0694 155.112 12.0905C155.237 12.1117 155.366 12.0951 155.482 12.0429C155.598 11.9907 155.696 11.9052 155.765 11.7968C155.833 11.6884 155.869 11.5619 155.868 11.4329V11.0799C155.868 10.9922 155.885 10.9054 155.918 10.8244C155.951 10.7434 156 10.6699 156.061 10.608C156.122 10.5461 156.195 10.4971 156.274 10.4637C156.354 10.4304 156.439 10.4134 156.526 10.4138ZM145.514 24.5889C146.675 25.7248 148.223 26.3593 149.833 26.3593C151.444 26.3593 152.991 25.7248 154.152 24.5889C154.72 24.0036 155.165 23.3071 155.461 22.5416C155.756 21.7761 155.896 20.9575 155.871 20.1354C155.895 19.3134 155.755 18.495 155.46 17.7295C155.165 16.9641 154.72 16.2676 154.152 15.682C152.991 14.5479 151.443 13.9146 149.833 13.9146C148.223 13.9146 146.676 14.5479 145.514 15.682C144.946 16.2671 144.5 16.9635 144.205 17.729C143.909 18.4945 143.769 19.3132 143.793 20.1354C143.768 20.9578 143.908 21.7766 144.204 22.5422C144.5 23.3079 144.946 24.0042 145.514 24.5889Z" fill="white"/>
</g>
<defs>
<linearGradient id="paint0_linear_11_988" x1="34.5" y1="33.9996" x2="12.0765" y2="25.8791" gradientUnits="userSpaceOnUse">
<stop stop-color="white"/>
<stop offset="1" stop-color="white" stop-opacity="0"/>
</linearGradient>
<clipPath id="clip0_11_988">
<rect width="160" height="33" fill="white"/>
</clipPath>
</defs>
</svg>
